<?xml version="1.0" encoding="UTF-8" standalone="no"?>
<!-- Created with Inkscape (http://www.inkscape.org/) -->

<svg
   width="360"
   height="120"
   viewBox="0 0 95.249998 31.75"
   version="1.1"
   id="svg1"
   xml:space="preserve"
   inkscape:version="1.3 (0e150ed6c4, 2023-07-21)"
   sodipodi:docname="tsuaqua-titlelogo3.svg"
   inkscape:export-filename="tsuaqua-titlelogo3.png"
   inkscape:export-xdpi="96"
   inkscape:export-ydpi="96"
   xmlns:inkscape="http://www.inkscape.org/namespaces/inkscape"
   xmlns:sodipodi="http://sodipodi.sourceforge.net/DTD/sodipodi-0.dtd"
   xmlns="http://www.w3.org/2000/svg"
   xmlns:svg="http://www.w3.org/2000/svg"><sodipodi:namedview
     id="namedview1"
     pagecolor="#ffffff"
     bordercolor="#000000"
     borderopacity="0.25"
     inkscape:showpageshadow="2"
     inkscape:pageopacity="0.0"
     inkscape:pagecheckerboard="0"
     inkscape:deskcolor="#d1d1d1"
     inkscape:document-units="mm"
     showgrid="true"
     inkscape:zoom="1.9893132"
     inkscape:cx="123.66077"
     inkscape:cy="84.7026"
     inkscape:window-width="1920"
     inkscape:window-height="974"
     inkscape:window-x="2869"
     inkscape:window-y="307"
     inkscape:window-maximized="1"
     inkscape:current-layer="layer1"><inkscape:grid
       id="grid24"
       units="px"
       originx="0"
       originy="0"
       spacingx="47.625"
       spacingy="15.875"
       empcolor="#0099e5"
       empopacity="0.30196078"
       color="#0099e5"
       opacity="0.14901961"
       empspacing="5"
       dotted="false"
       gridanglex="30"
       gridanglez="30"
       visible="true" /></sodipodi:namedview><defs
     id="defs1" /><g
     inkscape:label="Layer 1"
     inkscape:groupmode="layer"
     id="layer1"><path
       style="fill:#f28123;fill-opacity:1;stroke-width:0.0417279"
       d="M 3.9993155,24.68769 C 3.5560034,24.238005 3.3676369,23.90534 3.3364704,23.517072 3.299025,23.050581 3.4659062,22.733638 4.0812929,22.102498 4.467586,21.706316 4.5495957,21.511483 4.5463356,20.99767 4.5436189,20.570262 4.4878791,20.147165 4.3882164,19.797561 4.3390568,19.625116 4.3041322,19.573562 4.222607,19.553101 4.0494564,19.509646 3.8987328,19.57516 3.7012259,19.779672 3.4844106,20.004195 3.4319113,20.149697 3.3674941,20.704605 3.3393009,20.947457 3.2934305,21.141436 3.2490794,21.205346 3.0528826,21.488058 2.3109559,21.675541 1.4685305,21.65529 0.77569287,21.638639 0.76895955,21.617948 1.2848187,21.090943 1.5040411,20.866982 1.77329,20.575289 1.8831505,20.442735 c 0.2685705,-0.324045 0.3578654,-0.36405 0.8125993,-0.36405 0.2061998,0 0.424583,-0.01888 0.4852962,-0.04197 0.167471,-0.06367 0.5913149,-0.488289 0.7308671,-0.732203 0.117811,-0.205912 0.1238523,-0.240027 0.122437,-0.691394 -8.321e-4,-0.261135 -0.017972,-0.659295 -0.038116,-0.884796 -0.042019,-0.470355 -0.098761,-0.570609 -0.3229497,-0.570609 -0.1223393,0 -0.1847866,0.04594 -0.4723055,0.34746 -0.182229,0.191101 -0.4260343,0.399004 -0.5417895,0.462006 -0.1921257,0.104569 -0.2240357,0.11015 -0.3662221,0.06407 -0.3342429,-0.108345 -1.0924089,-0.532222 -1.2139891,-0.678717 -0.045268,-0.05454 -0.017189,-0.09231 0.189585,-0.255008 0.4089193,-0.321744 0.859169,-0.532966 1.1859314,-0.556347 l 0.2810031,-0.02011 0.2413501,0.255733 c 0.2344512,0.248424 0.2474557,0.255734 0.4549605,0.255734 0.3051904,0 0.5725223,-0.10497 0.809153,-0.317723 0.2439143,-0.219301 0.3661792,-0.452686 0.4032912,-0.769834 0.036187,-0.309236 -0.035604,-0.391039 -0.3125375,-0.35612 -0.5847955,0.07373 -0.6481063,0.07309 -0.7966131,-0.0082 -0.1707445,-0.09342 -0.3325504,-0.351671 -0.3322225,-0.530233 1.221e-4,-0.06886 0.035014,-0.201773 0.077527,-0.295378 0.1978196,-0.435555 0.703097,-0.518869 0.8890024,-0.146585 0.053425,0.106988 0.060148,0.162371 0.027183,0.223966 -0.037383,0.06985 -0.069155,0.0773 -0.2170258,0.05085 -0.095277,-0.01703 -0.2577306,-0.03336 -0.3610078,-0.03624 l -0.1877767,-0.0052 -0.012983,0.180429 c -0.015271,0.21225 0.033329,0.283961 0.2633509,0.388597 0.3367592,0.153188 0.692979,0.07015 0.8742718,-0.203803 C 4.8549013,14.754507 4.667446,13.505429 4.1507132,12.510344 3.9534242,12.130421 3.6177964,11.754595 3.4353524,11.709306 3.1374296,11.635352 2.9612892,11.82998 2.8993789,12.301539 2.8391261,12.760478 2.798489,12.909347 2.6892021,13.07152 2.5517019,13.275556 2.3531264,13.393414 2.1038068,13.41896 1.9844751,13.4312 1.6862451,13.46017 1.4410736,13.48335 1.1959022,13.50652 0.97057025,13.53062 0.940336,13.53689 0.8606192,13.55338 0.886484,13.274866 0.995424,12.943704 c 0.2091278,-0.635721 0.5002991,-1.049935 0.7935562,-1.128902 0.1058088,-0.02848 0.2494306,-0.02694 0.4547273,0.0049 0.4062594,0.06303 0.6165207,0.0029 0.8780403,-0.250808 0.1566005,-0.151968 0.2140873,-0.248498 0.2841398,-0.477114 0.1287343,-0.420129 0.1591393,-0.829896 0.071503,-0.963649 -0.081407,-0.124261 -0.1913145,-0.1333053 -0.5264839,-0.04334 -0.2940348,0.07892 -0.5976941,0.07933 -0.7491497,0.001 C 1.9090975,9.9344767 1.7792708,9.3821924 1.9739579,9.1167555 2.2503432,8.7399292 2.9509066,8.7743138 2.9509066,9.164707 c 0,0.1949234 -0.093308,0.2631573 -0.2641461,0.1931632 C 2.6140115,9.3280415 2.4852709,9.2833945 2.4006701,9.2586162 2.0812618,9.1650527 1.9201433,9.3840271 2.0569037,9.7258223 2.1505338,9.9598286 2.3066117,10.039253 2.6174428,10.011069 3.0356805,9.9731435 3.3582303,9.7327746 3.5515559,9.3149546 3.6285328,9.1485877 3.6391511,9.050073 3.6372436,8.5199946 3.6352625,7.9729793 3.6213688,7.8607945 3.4924136,7.3515522 3.3375981,6.7401962 3.3114574,6.3281168 3.3846073,5.6521059 3.4270889,5.2595102 3.394851,5.1816904 3.1897314,5.1816904 c -0.1014617,0 -0.1708387,0.048985 -0.3503962,0.247401 C 2.5881045,5.7067089 2.4139879,5.7867692 2.1308418,5.7548524 1.9535381,5.7348766 1.5971148,5.5375751 1.3776654,5.3379404 l -0.091893,-0.083595 0.105135,-0.137837 c 0.1289472,-0.1690605 0.417995,-0.3975851 0.3810261,-0.3012468 -0.028065,0.073138 0.085735,0.1991297 0.1807844,0.2001523 0.049058,6.394e-4 0.04849,0.00764 -0.00329,0.04109 -0.034425,0.022245 -0.1119302,0.040738 -0.1722339,0.04109 C 1.6641492,5.098233 1.5501489,5.1929959 1.58824,5.2546302 1.620831,5.3073602 2.8794257,5.2918042 2.8972107,5.2384582 2.9156986,5.182998 2.8308924,5.1121198 2.7214009,5.0915271 2.6588953,5.0797652 2.6411544,5.0484429 2.650726,4.9667271 2.6722265,4.7831595 2.3482917,4.5899364 2.293737,4.7537837 2.2842218,4.7823576 2.33286,4.8621682 2.4018214,4.9311284 L 2.5272066,5.0565132 H 2.3230853 c -0.1456734,0 -0.1986477,-0.014926 -0.1850052,-0.052158 0.028816,-0.078625 -0.030104,-0.1464828 -0.1830118,-0.2107765 l -0.1377194,-0.057908 0.1278827,-0.05297 c 0.077359,-0.032045 0.2408125,-0.04659 0.4137282,-0.03682 0.2517587,0.014222 0.318128,0.037184 0.5565581,0.1925296 0.3066643,0.1997981 0.4669227,0.2219571 0.637104,0.088093 C 3.6392844,4.8583361 3.6619566,4.8084538 3.6521377,4.7075578 3.6417087,4.6004069 3.6011909,4.5541012 3.4269846,4.4502455 3.3101444,4.3805919 3.0295159,4.259819 2.8033657,4.1818682 2.3093103,4.0115678 2.1341351,3.8691282 1.9680316,3.5026323 1.86938,3.2849651 1.8492324,3.1833307 1.8473601,2.8938907 1.8447392,2.4867879 1.9021299,2.4043624 2.158073,2.4477373 2.4115806,2.4907031 2.8874807,2.7494568 3.0627957,2.9396532 3.2064031,3.0954495 3.243139,3.1786644 3.3413753,3.5707039 3.4036122,3.8190798 3.4909151,4.0936097 3.5353815,4.1807719 3.7000979,4.5036437 4.0074741,4.6180881 4.1452357,4.4078358 4.2373442,4.2672629 4.1832097,4.0840564 3.9074614,3.603148 3.6036129,3.0732298 3.621604,2.88956 4.0256637,2.3964583 4.2155366,2.1647439 4.3492963,2.1581247 4.5363672,2.3711767 4.7961344,2.6670346 4.9309358,3.1509697 4.8149968,3.3714528 4.7802189,3.4375875 4.6564034,3.584882 4.5398504,3.6987704 4.3593152,3.8751817 4.3279358,3.929104 4.3279358,4.0629299 c 0,0.1225435 0.023518,0.1724993 0.1069495,0.227163 0.1015726,0.066553 0.1230773,0.065029 0.4277134,-0.030332 0.4337428,-0.1357789 0.8979846,-0.1306586 1.5982591,0.017643 0.4171577,0.088332 0.6398036,0.1114625 1.0729333,0.1114625 0.6610694,0 0.9146332,-0.075592 1.2238969,-0.3648723 0.2717139,-0.2541577 0.3689819,-0.4688877 0.3689819,-0.8145671 0,-0.2635672 -0.00648,-0.2816669 -0.1356157,-0.3786733 C 8.8239672,2.7052407 8.6333717,2.6613863 8.4907037,2.7156281 8.3145313,2.7826098 8.3073061,2.9068729 8.4610991,3.2247842 8.6169235,3.5468888 8.5944288,3.6377617 8.3588718,3.6377617 8.0747795,3.6377617 7.924561,3.3727307 7.994986,2.995761 8.0396322,2.7567599 8.1221254,2.6602939 8.3593135,2.5697119 8.705131,2.4376438 9.0342978,2.54018 9.2414159,2.8445038 c 0.115615,0.1698721 0.1177409,0.3124427 0.010426,0.6996784 -0.045895,0.1656404 -0.083456,0.3454333 -0.083456,0.399544 0,0.2315418 0.2545775,0.2917573 0.7217157,0.1707128 0.4339334,-0.1124437 0.7479424,-0.3024132 0.9270214,-0.5608217 0.185647,-0.2678884 0.201334,-0.3938231 0.09917,-0.7960934 -0.05378,-0.2117672 -0.07977,-0.4036991 -0.06347,-0.4686768 0.05094,-0.2029842 0.274858,-0.4009184 0.668887,-0.591281 0.394903,-0.1907877 1.00484,-0.3905725 1.051116,-0.3442955 0.03474,0.034739 -0.102701,1.4456626 -0.14931,1.5327512 -0.01964,0.036695 -0.128165,0.153201 -0.241167,0.2589007 -0.16954,0.1585865 -0.248515,0.2002994 -0.451756,0.2386149 -0.640403,0.120728 -0.701746,0.139921 -0.817619,0.2557942 -0.09046,0.09046 -0.117194,0.1563587 -0.117194,0.2888742 0,0.1481671 0.02527,0.1962371 0.184535,0.3510265 0.226628,0.2202563 0.633405,0.4368145 1.1299,0.6015247 0.571166,0.1894868 0.828884,0.2329033 1.397893,0.2354954 0.477943,0.00224 0.539064,-0.00646 0.730242,-0.1032644 0.288441,-0.1460511 0.407757,-0.3744224 0.38661,-0.7399722 -0.01919,-0.3317155 -0.147611,-0.4873103 -0.402203,-0.4873103 -0.304846,0 -0.344144,0.1069943 -0.210866,0.5741145 0.06696,0.2346996 0.02111,0.2976222 -0.188816,0.2590415 -0.209581,-0.038517 -0.314967,-0.1737554 -0.314967,-0.4041818 0,-0.1788404 0.01843,-0.2197895 0.164711,-0.3660772 0.502501,-0.5025015 1.297829,-0.1512353 1.128776,0.4985351 -0.09485,0.3645847 -0.09824,0.4985832 -0.01492,0.5909199 0.06563,0.072745 0.111265,0.08256 0.295747,0.063623 0.574624,-0.058995 1.051413,-0.5849462 1.053651,-1.1622984 0.0013,-0.310423 -0.01397,-0.3417196 -0.249364,-0.5145194 -0.285906,-0.2098751 -0.347245,-0.3811822 -0.269512,-0.7527056 0.06206,-0.296609 0.183035,-0.5610486 0.422269,-0.9230349 0.215447,-0.3259943 0.231524,-0.332703 0.414115,-0.1727997 0.18282,0.1601047 0.613819,0.7985768 0.685315,1.0152149 0.04393,0.1331004 0.03725,0.1730427 -0.06327,0.3784975 -0.06523,0.1333145 -0.260383,0.3852221 -0.465101,0.6003452 -0.413604,0.4346282 -0.466593,0.5747059 -0.293383,0.7755741 l 0.105244,0.1220482 0.597977,-0.00396 c 0.639949,-0.00425 1.023847,-0.070248 1.336481,-0.2297424 0.252729,-0.1289326 0.599062,-0.4741772 0.720861,-0.7185963 0.09807,-0.1967932 0.103935,-0.2406029 0.07926,-0.5916262 -0.033,-0.4694822 6.39e-4,-0.5455474 0.389925,-0.8817598 0.155674,-0.1344492 0.451267,-0.4008704 0.656875,-0.5920513 0.340765,-0.3168566 0.378599,-0.3410833 0.427713,-0.2739131 0.06467,0.088431 0.06571,0.165161 0.01228,0.8922974 -0.06934,0.9435413 -0.187722,1.3234994 -0.442538,1.420381 -0.05369,0.020424 -0.269854,0.066999 -0.480354,0.1035202 -0.501527,0.087018 -0.756225,0.2172708 -0.915284,0.4680791 -0.152652,0.2407082 -0.163233,0.4418067 -0.0279,0.5304775 0.129123,0.084605 0.625397,0.1502636 1.156354,0.1529868 0.72304,0.00371 0.857758,-0.058285 1.460402,-0.6720637 0.484237,-0.4931818 0.706999,-0.6297467 1.077342,-0.6604584 0.49035,-0.040662 0.900697,0.1501933 1.447343,0.6731695 0.347549,0.3324985 0.352101,0.3222676 -0.250196,0.5623463 C 23.439419,4.6385669 23.089696,4.7812654 22.89176,4.8641894 22.280317,5.1203543 22.119185,5.1101809 21.673554,4.7872834 21.354688,4.5562393 21.228906,4.5382962 20.855523,4.6705815 20.572868,4.7707201 20.46192,4.7849653 19.809976,4.8048167 l -0.729336,0.022213 -0.04117,0.1173658 c -0.0332,0.094635 -0.02293,0.1517563 0.05303,0.2949436 0.07937,0.1496053 0.154729,0.2099966 0.478417,0.3833716 0.365303,0.1956651 0.390325,0.2180413 0.508515,0.4546809 0.111649,0.2235481 0.124396,0.289587 0.125187,0.6485847 6.7e-4,0.3092337 -0.01541,0.4245604 -0.0711,0.5095747 -0.06678,0.1019476 -0.08322,0.1067769 -0.227709,0.066882 -0.438833,-0.1211658 -0.860853,-0.4029637 -0.996594,-0.6654538 -0.0823,-0.1591458 -0.07503,-0.4268264 0.02268,-0.8359494 0.109227,-0.4573209 0.07431,-0.5890532 -0.241851,-0.9123661 -0.20416,-0.2087819 -0.265157,-0.246618 -0.438585,-0.2720465 -0.41372,-0.060669 -0.507338,0.094587 -0.361457,0.5994439 l 0.09358,0.3238562 -0.08467,0.1651578 C 17.725742,6.0428632 17.455869,6.1728602 17.090469,6.0944937 16.628817,5.9954867 16.40678,5.4601542 16.737494,5.2434618 c 0.125721,-0.082374 0.313696,-0.066867 0.374924,0.030938 0.03356,0.053603 0.02684,0.1206994 -0.02651,0.2646283 -0.109592,0.2956916 0.01075,0.4344237 0.325613,0.3753557 0.198521,-0.037245 0.31114,-0.1964801 0.31114,-0.4399242 0,-0.2729319 -0.166058,-0.4955756 -0.487266,-0.6532959 -0.216528,-0.1063229 -0.286115,-0.1191523 -0.63939,-0.117877 l -0.396415,0.00128 -0.667652,0.3154726 c -0.367207,0.1735061 -0.742759,0.3396802 -0.834562,0.3692702 -0.315345,0.1016406 -0.396416,0.1606352 -0.396416,0.2884523 0,0.065167 0.03743,0.1660719 0.08318,0.2242354 0.07987,0.1015383 0.104382,0.1063869 0.615491,0.1217476 0.628958,0.018889 0.758219,0.069299 1.079596,0.4209359 0.321968,0.3522859 0.641963,1.035405 0.641963,1.3704509 v 0.132502 L 16.189154,7.9239179 C 15.882084,7.9102356 15.560077,7.8709039 15.427616,7.8308977 15.152461,7.7477947 14.859619,7.5848518 14.806271,7.4851704 14.784994,7.4454135 14.737734,7.198169 14.701249,6.9357332 14.62371,6.3779927 14.553377,6.2436905 14.185812,5.9514955 13.832661,5.6707618 13.62485,5.5577779 13.178747,5.4039761 12.78311,5.2675772 12.499161,5.2314064 12.386091,5.3030098 c -0.03673,0.023268 -0.06854,0.156819 -0.08681,0.3644824 -0.03314,0.3766245 -0.07388,0.4711985 -0.266124,0.6178313 -0.203636,0.1553201 -0.356627,0.1724162 -0.595933,0.066598 -0.395032,-0.1746823 -0.560889,-0.4427784 -0.461772,-0.7464251 0.06547,-0.2005871 0.297024,-0.3269245 0.461681,-0.2519013 0.167672,0.076398 0.176739,0.1846191 0.02952,0.3522922 -0.156379,0.1781053 -0.170619,0.3593972 -0.03565,0.4539266 0.174174,0.1219969 0.516542,0.043346 0.6154,-0.1413688 0.06605,-0.123429 0.05124,-0.5355948 -0.02504,-0.696329 C 11.881806,5.0280069 11.307157,4.6581838 10.628886,4.4259676 10.231216,4.2898182 9.7692044,4.3014106 8.9597605,4.4678503 8.2179753,4.6203736 8.1669266,4.6527633 8.1669266,4.9708888 c 0,0.2494305 0.1832695,0.6289604 0.4111852,0.8515146 0.090543,0.088415 0.3114865,0.2573666 0.4909827,0.3754515 0.4320838,0.2842462 0.5269323,0.4587624 0.5512257,1.014224 C 9.6398913,7.6593736 9.5035659,8.3807288 9.3913379,8.4237963 9.2877464,8.4635514 8.7244068,8.1469654 8.4479338,7.8936288 8.1588323,7.6287219 8.0000104,7.3575129 8.0000104,7.1287421 c 0,-0.083026 0.050105,-0.2781352 0.1113482,-0.4335734 C 8.2025465,6.463707 8.2228081,6.3445673 8.2232873,6.0369956 8.2245011,5.2561511 7.8856929,4.8063956 7.1265757,4.5811661 6.8668472,4.5041037 6.6122229,4.4944099 6.4950518,4.5570991 c -0.073198,0.039175 -0.080713,0.091822 -0.080713,0.5654019 0,0.7846863 -0.055664,0.8518885 -0.7056274,0.8518885 -0.4667609,0 -0.4951577,0.02672 -0.5453417,0.5131256 -0.066974,0.6491346 -0.172888,0.7453353 -0.849962,0.7720168 -0.2559417,0.0101 -0.4907931,0.038824 -0.5218917,0.063859 -0.1032291,0.083103 -0.039737,0.4862811 0.1309766,0.8316955 0.1914871,0.3874495 0.4639218,0.651723 0.8039675,0.7798919 0.362507,0.1366318 0.8405389,0.1064511 1.268517,-0.080085 0.3614612,-0.1575487 0.5662612,-0.1532873 0.8582952,0.01787 0.3336364,0.1955243 0.8963668,0.9241443 0.8963668,1.1606147 0,0.04133 -0.1227462,0.102487 -0.3651211,0.181935 -0.3162176,0.10365 -0.4293941,0.11968 -0.8449946,0.11968 -0.6199544,0 -0.7751162,-0.07374 -1.0103729,-0.4801683 C 5.2895673,9.440916 5.0717159,9.2111703 4.7811378,9.0659659 4.3620754,8.8565571 4.0244891,8.9048959 3.9579638,9.1838308 3.5838288,10.752558 3.596359,11.085645 4.0635875,11.99166 c 0.4494251,0.87149 0.9467004,1.326889 1.4489054,1.326889 0.1967606,0 0.2400337,-0.01511 0.3146234,-0.109946 0.1141152,-0.145077 0.1199435,-0.472762 0.010177,-0.572102 -0.1147095,-0.103808 -0.243882,-0.08395 -0.430765,0.06623 l -0.1683555,0.135297 -0.1004304,-0.11676 c -0.1322892,-0.153795 -0.1267176,-0.259147 0.021545,-0.407409 0.247014,-0.247015 0.6680072,-0.125615 0.8659606,0.249712 0.1236132,0.234374 0.1243918,0.451255 0.00226,0.634051 -0.1406161,0.21049 -0.3285701,0.287693 -0.7005711,0.28777 -0.413631,8.9e-5 -0.4780724,0.04494 -0.4389931,0.305535 0.0607,0.404776 0.5150483,1.098835 0.946075,1.445218 0.1778281,0.142906 0.4616199,0.206107 0.9392568,0.209169 0.284906,0.0018 0.462324,0.12441 0.6078636,0.419987 0.13582,0.275836 0.2431435,0.784094 0.2552461,1.208777 l 0.00892,0.31296 -0.1179821,0.01352 C 7.2314697,17.434457 6.3768931,17.069367 6.0498754,16.769367 5.7868362,16.528061 5.7140535,16.340133 5.665194,15.776107 5.6276313,15.342482 5.614512,15.292379 5.5161068,15.206755 5.3950984,15.10146 5.1973836,15.083134 5.124882,15.170495 c -0.026304,0.0317 -0.076328,0.167835 -0.1111585,0.30253 -0.034832,0.134693 -0.1485954,0.451453 -0.2528087,0.703908 -0.321916,0.779837 -0.356893,0.897219 -0.356893,1.197695 0,0.355564 0.093914,0.640776 0.284188,0.863069 0.1874358,0.218977 0.3372199,0.296874 0.5708397,0.296874 0.2616179,0 0.4041795,-0.146247 0.4041795,-0.414624 0,-0.107032 -0.022532,-0.21714 -0.050073,-0.244682 -0.069327,-0.06933 -0.2219866,-0.06258 -0.3750639,0.0166 -0.2711819,0.140234 -0.4402332,-0.118779 -0.242004,-0.370785 0.1234199,-0.156902 0.2963818,-0.180202 0.5230669,-0.07047 0.2312493,0.111948 0.3527154,0.32323 0.3527154,0.613526 0,0.277703 -0.1111888,0.468786 -0.3463844,0.595263 l -0.1932988,0.103945 -0.2830563,-0.07873 c -0.5929413,-0.164931 -0.7212012,-0.137386 -0.7212012,0.154869 0,0.332755 0.2457665,0.669553 0.6325861,0.866892 0.2059489,0.105067 0.3949068,0.09531 0.9155517,-0.04726 0.3107039,-0.08508 0.3811339,-0.09161 0.5245975,-0.04862 0.3185652,0.09544 0.7233854,0.617138 0.8235777,1.061349 0.021759,0.09646 0.00635,0.123405 -0.1031927,0.180034 -0.3015801,0.155948 -1.0141776,0.11302 -1.2987665,-0.07824 C 5.7433495,20.72059 5.5946283,20.531376 5.4754527,20.332382 5.2024568,19.876537 4.9119036,19.709152 4.722467,19.898586 c -0.062105,0.06211 -0.066311,0.125016 -0.035575,0.532035 0.046805,0.619797 0.035329,0.81783 -0.070712,1.220319 -0.1173857,0.445549 -0.093587,0.555404 0.1965099,0.907101 0.2213697,0.268378 0.2335394,0.295196 0.2353545,0.518713 0.00137,0.169622 -0.041707,0.358535 -0.1536803,0.673843 -0.085577,0.240983 -0.212808,0.607148 -0.2827352,0.813702 -0.1918736,0.566763 -0.1778519,0.563943 -0.6123196,0.12323 z m 0.2638136,-1.260324 c 0.00594,-1.077754 -0.00606,-1.156993 -0.1491569,-0.98467 -0.044552,0.05365 -0.05727,0.264466 -0.05727,0.949316 0,0.937134 0.022543,1.123815 0.1330937,1.102196 0.059889,-0.01173 0.068176,-0.132264 0.073333,-1.066842 z m -0.3810674,0.468028 c 0.092617,-0.19422 0.088765,-0.269819 -0.01375,-0.269819 -0.050067,0 -0.1175124,0.05485 -0.1667564,0.135615 -0.1123932,0.184341 -0.1076967,0.281667 0.013593,0.281667 0.069482,0 0.1163277,-0.04138 0.1669134,-0.147463 z m 0.779699,0.06721 c 0,-0.110711 -0.1986348,-0.337027 -0.2958063,-0.337027 -0.091099,0 -0.1000884,0.04958 -0.032657,0.18009 0.1184205,0.229205 0.3284634,0.329565 0.3284633,0.156937 z M 3.7802835,23.25508 c 0.2355281,-0.4081 0.2516976,-0.464065 0.1340804,-0.464065 -0.1552134,0 -0.462719,0.470323 -0.462719,0.707717 0,0.221158 0.1055395,0.142913 0.3286386,-0.243652 z m 1.0687533,-0.0035 C 4.8828359,23.145084 4.8248674,23.04157 4.6410391,22.880167 4.3256889,22.603288 4.2325647,22.77598 4.5218523,23.101194 c 0.2190495,0.246251 0.2868639,0.277419 0.3271845,0.150379 z M 2.2625235,21.413891 c 0.1680546,-0.115623 0.2687685,-0.266523 0.2142633,-0.321028 -0.084263,-0.08426 -0.614914,0.296658 -0.5529455,0.396927 0.049004,0.07929 0.1440962,0.05799 0.3386822,-0.0759 z M 1.9452638,21.252518 c 0.1744212,-0.111757 0.4861281,-0.287999 0.6926824,-0.39165 0.4346755,-0.218121 0.5891399,-0.331111 0.5466426,-0.399877 -0.050042,-0.08097 -0.1345109,-0.05713 -0.5675064,0.160157 -0.228671,0.114751 -0.4254953,0.208641 -0.4373875,0.208641 -0.011893,0 -0.021623,-0.02691 -0.021623,-0.05979 0,-0.07725 -0.1303895,-0.11789 -0.2676842,-0.08343 -0.080342,0.02017 -0.107869,0.05393 -0.107869,0.132329 0,0.09699 0.011471,0.103396 0.1460487,0.08156 0.080326,-0.01304 0.1460486,-0.01729 0.1460486,-0.0094 0,0.0078 -0.079805,0.06122 -0.1773447,0.118586 -0.2324597,0.136735 -0.382243,0.29955 -0.3508459,0.381367 0.013656,0.03559 0.037631,0.06471 0.053271,0.06471 0.015642,0 0.1711458,-0.09144 0.3455668,-0.203191 z m 0.8755275,0.135184 c 0.1201472,-0.08415 0.3387566,-0.422536 0.3387566,-0.524357 0,-0.139818 -0.1571837,-0.08358 -0.2852354,0.10206 -0.067282,0.09754 -0.1620728,0.213116 -0.2106453,0.256835 -0.1902584,0.171253 -0.054801,0.313901 0.1571241,0.165462 z M 6.6116546,20.801807 C 6.6384924,20.72025 6.3951108,20.4784 6.3165412,20.508551 c -0.093296,0.0358 -0.086947,0.120395 0.019161,0.255288 0.089585,0.113889 0.2439814,0.13513 0.2759538,0.03797 z m -0.4476815,-0.07903 c 0,-0.0831 -0.3370485,-0.477137 -0.4081584,-0.477166 -0.085593,-2.9e-5 -0.1070608,0.117774 -0.039977,0.219377 0.1738374,0.263283 0.4481348,0.421074 0.4481354,0.257789 z m 0.7430165,-0.09019 c 0.0092,-0.06219 -0.040414,-0.124541 -0.1773444,-0.222879 -0.2096577,-0.150565 -0.2336995,-0.183569 -0.1036511,-0.142293 0.1372921,0.04358 0.2890855,-0.01211 0.2890855,-0.10607 0,-0.07127 -0.028481,-0.08266 -0.2065673,-0.08266 -0.1417316,0 -0.2177446,0.01998 -0.2421786,0.06363 -0.031118,0.05561 -0.062858,0.05165 -0.2514588,-0.03129 -0.1187158,-0.05221 -0.2162897,-0.10661 -0.2168309,-0.120884 -5.433e-4,-0.01428 0.0976,-0.05329 0.2180896,-0.08669 0.1750878,-0.04854 0.2219124,-0.08018 0.2332169,-0.157572 0.013417,-0.09185 0.00468,-0.09553 -0.1698137,-0.07162 -0.2654634,0.03638 -0.4127084,0.101756 -0.4368118,0.193929 -0.01283,0.04906 -0.064319,0.0856 -0.1315784,0.09338 -0.2078225,0.02407 -0.1204932,0.130318 0.2233219,0.271725 0.1836037,0.07552 0.4558801,0.221474 0.6050581,0.324358 0.2894782,0.199641 0.3472701,0.211428 0.367463,0.07493 z M 2.559706,20.495963 c 0.1691546,0 0.2242884,-0.01503 0.2242884,-0.06112 0,-0.103664 -0.1647658,-0.157702 -0.423741,-0.138969 -0.2651785,0.01917 -0.3538565,0.07087 -0.3113988,0.181512 0.020678,0.05389 0.057595,0.06437 0.1568048,0.04453 0.071367,-0.01428 0.2306878,-0.02596 0.3540466,-0.02596 z m 0.097899,-2.77416 c 0.1228369,-0.07755 0.1681174,-0.134084 0.1681174,-0.209926 0,-0.05709 -0.01218,-0.103795 -0.027068,-0.103795 -0.014887,0 -0.1463314,0.06058 -0.2920969,0.134628 -0.2144741,0.108948 -0.2650275,0.153723 -0.2650275,0.234719 0,0.08874 0.014057,0.09728 0.1239792,0.0753 0.068189,-0.01365 0.1996321,-0.07256 0.292097,-0.130924 z m -0.5677522,-0.06638 c 0.134702,-0.105959 0.1422215,-0.204184 0.01606,-0.209774 -0.240077,-0.01064 0.1354848,-0.07126 0.4694416,-0.07578 0.3868136,-0.0052 0.4863579,-0.03897 0.4436104,-0.150372 -0.024585,-0.06407 -0.082666,-0.0697 -0.538114,-0.05213 -0.5662475,0.02183 -0.9150301,0.117568 -0.9421917,0.258608 -0.013733,0.07131 0.00626,0.076 0.2291601,0.05374 0.2325721,-0.02324 0.2387387,-0.02148 0.1294532,0.03678 -0.1464148,0.07804 -0.1569143,0.225411 -0.01606,0.225411 0.054281,0 0.1481696,-0.03891 0.2086404,-0.08648 z m 0.026494,-0.616197 c 0,-0.08587 -0.1591659,-0.173611 -0.3149245,-0.173611 -0.1331473,0 -0.1389438,0.136514 -0.00847,0.19944 0.1571008,0.07577 0.3233929,0.06249 0.3233929,-0.02583 z m 0.709378,-0.0094 c 0,-0.158222 -0.4185687,-0.471668 -0.5090402,-0.381199 -0.067975,0.06798 -0.013139,0.159245 0.1795231,0.298809 0.1755518,0.127172 0.3295171,0.165666 0.3295171,0.08239 z m 4.5483657,-0.0202 c 0,-0.132493 -0.1292831,-0.301272 -0.549266,-0.717062 C 6.4070572,15.87897 5.9877738,15.53035 5.908107,15.53035 c -0.092646,0 -0.082427,0.136859 0.018103,0.242428 0.096008,0.100825 0.1008121,0.120514 0.047149,0.19326 -0.036976,0.05012 -0.059752,0.181347 -0.059752,0.344258 0,0.230481 0.00983,0.263258 0.078992,0.263258 0.099318,0 0.1296489,-0.07832 0.1296489,-0.334774 0,-0.11152 0.014082,-0.211244 0.031297,-0.221606 0.017215,-0.01036 0.1601854,0.101194 0.3177172,0.247907 0.2244506,0.209031 0.2673352,0.266744 0.1982085,0.266744 -0.074217,0 -0.088122,0.02484 -0.087643,0.156483 8.641e-4,0.237212 0.041125,0.344254 0.1294817,0.344254 0.066722,0 0.078906,-0.03308 0.080686,-0.219071 l 0.00211,-0.219073 0.2169758,0.238867 c 0.2116495,0.233003 0.3630243,0.306534 0.3630243,0.176341 z m 0.108497,-0.609744 c 0.052731,-0.08533 -0.1450769,-0.201884 -0.3426244,-0.201884 -0.1521442,0 -0.1831537,0.01342 -0.1831537,0.07932 0,0.121015 0.4604049,0.228348 0.5257781,0.122572 z M 7.2258481,15.917408 c 0.050607,-0.131886 -0.2059473,-0.245299 -0.6587298,-0.291199 -0.2371281,-0.02404 -0.2432644,-0.02208 -0.2295046,0.07251 0.012351,0.0849 0.055022,0.105887 0.3373266,0.165883 0.1777541,0.03777 0.335799,0.0813 0.3512116,0.09671 0.053638,0.05363 0.1722773,0.02755 0.1996962,-0.04389 z M 1.7777723,13.287441 c 0.048375,-0.04016 0.099746,-0.134053 0.114159,-0.208641 0.022852,-0.118258 0.014994,-0.135617 -0.061395,-0.135617 -0.095035,0 -0.2149279,0.185061 -0.2149279,0.331755 0,0.104738 0.046734,0.10834 0.1621636,0.01249 z M 1.6440854,12.992213 c 0.1176755,-0.133689 0.3369852,-0.326156 0.4873544,-0.427715 0.2787325,-0.18825 0.3504315,-0.273957 0.2844066,-0.339983 -0.066382,-0.06638 -0.2396113,0.0109 -0.5436088,0.242507 -0.194803,0.148416 -0.2983573,0.205324 -0.2983573,0.16396 0,-0.0443 -0.042906,-0.06335 -0.1426357,-0.06335 -0.1993991,0 -0.2746457,0.03701 -0.2746457,0.135075 0,0.07536 0.020139,0.08215 0.1876027,0.06327 L 1.531804,12.744814 1.4067937,12.9148 c -0.2758732,0.37513 -0.080792,0.438755 0.2372917,0.0774 z m 0.5396791,0.127674 c 0.076646,-0.05047 0.2246784,-0.374017 0.2246784,-0.491062 0,-0.188276 -0.1345559,-0.10346 -0.2840407,0.179041 -0.075896,0.143431 -0.1264263,0.279494 -0.1122896,0.302368 0.030127,0.04875 0.1058225,0.053 0.1716519,0.0096 z m -0.08437,-0.892415 c 0.048889,-0.07911 -0.1113633,-0.160624 -0.3144168,-0.159942 -0.222833,6.38e-4 -0.3168515,0.04798 -0.2810796,0.141199 0.019852,0.05174 0.08657,0.0668 0.2957147,0.0668 0.1587587,0 0.2823221,-0.01982 0.2997817,-0.04806 z m 4.7739584,-2.03054 c 0,-0.09401 -0.2092613,-0.2999036 -0.304812,-0.2999036 -0.1053746,0 -0.087519,0.1539256 0.031683,0.2731306 0.1222118,0.12221 0.2731294,0.137006 0.2731294,0.02679 z M 6.3597876,10.16236 C 6.397636,10.063727 5.8876663,9.572443 5.8188587,9.641253 c -0.065025,0.065026 0.061721,0.3015818 0.2502961,0.467153 0.1567385,0.137619 0.2517583,0.155258 0.2906328,0.05395 z M 7.2365931,10.035837 C 7.3152382,9.8308908 6.0061997,9.1786084 5.7294106,9.2848227 5.5798964,9.3421917 5.6687651,9.4315705 5.9647134,9.5214582 6.2888152,9.6199033 6.5011065,9.7193381 6.8917622,9.9556808 7.1738451,10.126342 7.1995696,10.132319 7.2365931,10.035837 Z M 7.1550181,9.5219343 c 0.1050443,-3.192e-4 0.1356156,-0.018251 0.1356156,-0.079389 0,-0.100823 -0.1577374,-0.1424567 -0.4013242,-0.105927 -0.1990315,0.029853 -0.2460341,0.068811 -0.2066914,0.1713325 0.019474,0.050752 0.061162,0.060001 0.181042,0.040182 0.085657,-0.014154 0.2167683,-0.025956 0.291358,-0.026212 z M 6.4456397,9.1395831 C 6.7665294,9.0124279 6.7331549,8.8705569 6.3999238,8.9452502 6.1499777,9.001275 5.9553345,9.0942896 5.9553345,9.1577019 c 0,0.1395339 0.1019642,0.1357661 0.4903058,-0.018131 z M 9.1266715,7.7776595 C 9.1266715,7.542065 9.0185298,7.1704744 8.8397129,6.791619 8.6767769,6.4464158 8.5403627,6.2790015 8.4616511,6.3276469 c -0.071979,0.044484 -0.052024,0.1353569 0.081787,0.3724536 0.1447995,0.2565708 0.3745932,0.8634426 0.3745932,0.9892814 0,0.1203189 0.075492,0.246423 0.1475167,0.246423 0.042927,0 0.061122,-0.047079 0.061122,-0.1581454 z M 8.784497,7.5494161 C 8.795787,7.3333565 8.788817,7.309884 8.713366,7.309884 c -0.062538,0 -0.090552,0.036803 -0.1109951,0.1457731 -0.037854,0.2018017 0.00801,0.3640349 0.098081,0.3469004 0.055825,-0.010611 0.074284,-0.066215 0.084048,-0.2531414 z m 7.461343,0.2018752 c 0.02881,-0.075087 -0.03813,-0.204138 -0.227133,-0.437882 l -0.148984,-0.1842515 0.144069,0.033703 c 0.272817,0.063824 0.394438,0.05126 0.394438,-0.040754 0,-0.097556 -0.203648,-0.1817361 -0.448578,-0.1854212 -0.116307,-0.0016 -0.15648,0.014702 -0.15648,0.064105 0,0.04434 -0.07188,0.00192 -0.215983,-0.1277307 -0.388669,-0.3494445 -0.702036,-0.4816979 -0.702036,-0.296283 0,0.034292 0.107971,0.1368847 0.239937,0.2279844 0.131965,0.0911 0.315048,0.2366748 0.406849,0.3234981 0.140356,0.1327489 0.154589,0.1603764 0.08946,0.1736564 -0.152475,0.031099 0.01811,0.4669764 0.18274,0.4669764 0.05964,0 0.08249,-0.028222 0.08249,-0.101858 0,-0.056018 -0.01878,-0.1134633 -0.04173,-0.1276446 -0.02295,-0.01419 -0.0416,-0.048153 -0.04145,-0.07549 1.44e-4,-0.027327 0.07672,0.039497 0.170159,0.1485122 0.178389,0.2081236 0.234653,0.236825 0.272239,0.1388791 z M 15.341416,7.5662214 C 15.339904,7.551455 15.268831,7.3986858 15.183481,7.2267203 15.017143,6.891585 14.88483,6.7928016 14.88556,7.0042939 c 5.44e-4,0.1528206 0.179071,0.5354922 0.274849,0.5890917 0.07377,0.041285 0.186286,0.024387 0.181007,-0.027168 z M 9.5439522,7.4383212 c 0,-0.086561 -0.3126386,-0.3788074 -0.4052372,-0.3788074 -0.031021,0 -0.068291,0.031002 -0.08283,0.068896 -0.018115,0.047216 0.027748,0.11944 0.1457429,0.2295058 0.188408,0.1757466 0.3423241,0.2118951 0.3423243,0.080406 z M 8.4086548,7.0600348 C 8.4212168,6.7031592 8.3805064,6.5788738 8.2829967,6.6763819 8.2098812,6.7495062 8.185599,7.2944179 8.2519118,7.3743184 8.3535542,7.4967916 8.3963049,7.4110746 8.408658,7.0600348 Z M 4.7808949,7.0417848 C 4.979849,6.9389007 5.0665002,6.5882545 4.9368021,6.4108811 4.8780837,6.330581 4.8671617,6.3295167 4.4322572,6.3617307 4.3164268,6.3702963 4.3061263,6.359813 4.2944073,6.2193103 4.2755788,5.9937933 4.4232907,5.8911298 4.7666001,5.8911298 c 0.338118,0 0.3814309,-0.046251 0.3124787,-0.3336747 C 5.0513364,5.4418089 5.040277,5.3008173 5.0545039,5.2441368 5.0893537,5.1052834 5.2589004,4.9985672 5.391701,5.0318998 c 0.097498,0.024483 0.1046247,0.043745 0.1046247,0.2829773 0,0.3013743 0.070797,0.4093403 0.2684153,0.4093403 0.1313703,0 0.2950614,-0.087702 0.3858432,-0.2067236 C 6.3855063,5.2094841 6.0766903,4.6473872 5.5990813,4.5136635 5.2978479,4.4293235 4.812073,4.4774511 4.5215917,4.6204149 3.4780503,5.1340071 3.2419887,6.5519303 4.1266328,6.9927654 4.3695541,7.1138195 4.6071689,7.1316221 4.7808959,7.0417848 Z M 19.975984,7.020786 c 0,-0.044254 -0.07041,-0.1983177 -0.15648,-0.3423617 C 19.733438,6.534377 19.613665,6.26545 19.553336,6.0808053 19.486286,5.8755741 19.418716,5.7401086 19.37951,5.7322748 c -0.222483,-0.044452 0.04238,0.8528794 0.364057,1.2333616 0.128438,0.1519226 0.232417,0.1765969 0.232417,0.05515 z M 19.466901,6.967723 c 0.07162,-0.071622 0.06325,-0.3114966 -0.01188,-0.3403258 -0.07292,-0.027998 -0.146687,0.09001 -0.146687,0.2346515 0,0.1533576 0.06654,0.1977011 0.158567,0.1056743 z M 9.4187686,6.7262993 c 0,-0.059362 -0.070651,-0.1185196 -0.2491783,-0.2086382 -0.2649464,-0.133746 -0.3553742,-0.1523923 -0.3987378,-0.08223 -0.039614,0.064101 0.05436,0.1584074 0.2696191,0.2705699 0.2414219,0.1257907 0.378297,0.1331356 0.378297,0.020296 z m 10.7241294,-0.00834 c 0,-0.113051 -0.155212,-0.2843549 -0.257642,-0.2843549 -0.110761,0 -0.09629,0.1505961 0.02624,0.2731301 0.128153,0.1281527 0.231401,0.1331611 0.231401,0.011218 z M 19.186956,6.3710092 c 0.09863,-0.2811971 0.100766,-0.406435 0.0066,-0.3890447 -0.08619,0.015917 -0.213285,0.2584469 -0.248201,0.4736212 -0.0229,0.1411131 -0.01762,0.1512834 0.07184,0.1381951 0.07358,-0.010771 0.113976,-0.063786 0.169739,-0.2227716 z m -3.188617,0.1209743 c 0.03813,-0.099394 -0.06172,-0.1405507 -0.341214,-0.1406274 -0.329375,-9.26e-5 -0.438147,0.031898 -0.438147,0.12884 0,0.071169 0.0356,0.07859 0.376863,0.07859 0.307054,0 0.381611,-0.012369 0.402498,-0.066803 z m 4.102832,-0.2413028 c 0,-0.1192195 -0.293393,-0.4012732 -0.417402,-0.4012732 -0.134938,0 -0.09836,0.1275838 0.09226,0.3218137 0.199029,0.2027988 0.325138,0.2336194 0.325138,0.07946 z M 2.5146902,5.6217872 C 2.6675958,5.5578995 2.7382355,5.4531329 2.6726366,5.3875319 2.6210076,5.3359044 2.116346,5.5060196 2.116346,5.5750531 c 0,0.124081 0.1664822,0.1436125 0.3983442,0.046734 z M 2.077361,5.5141154 C 2.163524,5.4680014 2.1845511,5.3699596 2.117204,5.3283361 2.094726,5.3144321 2.0008375,5.3257761 1.9085637,5.3533301 c -0.1169505,0.03504 -0.167771,0.073546 -0.167771,0.1271173 0,0.057939 0.031485,0.076851 0.1279275,0.076851 0.070361,0 0.1642488,-0.019433 0.2086407,-0.043196 z M 22.757369,4.783543 c 0.04117,-0.1072755 0.02725,-0.1121592 -0.601091,-0.2111182 -0.162004,-0.025506 -0.177344,-0.020231 -0.177344,0.061197 0,0.049019 0.0046,0.089412 0.01043,0.089757 0.0058,3.197e-4 0.08554,0.027679 0.177346,0.060758 0.230937,0.083199 0.558627,0.082867 0.590656,-6.392e-4 z M 22.087244,4.3680182 c 0.284982,-0.098361 0.598964,-0.1558953 1.153965,-0.2114508 0.207419,-0.020774 0.239938,-0.035769 0.239938,-0.1107305 0,-0.084503 -0.01263,-0.086002 -0.495295,-0.058723 -0.723635,0.040894 -1.34074,0.2279526 -1.34074,0.4064063 0,0.1046418 0.07813,0.1001353 0.442132,-0.025506 z m 1.185264,0.023365 c 0,-0.1030566 -0.01697,-0.1119514 -0.281664,-0.1476588 -0.202471,-0.027296 -0.219076,-0.023076 -0.219076,0.05575 0,0.1132204 0.107142,0.1700831 0.323395,0.1716332 0.148164,9.602e-4 0.177345,-0.01205 0.177345,-0.079724 z M 22.083341,3.8835909 c 0.210112,-0.2854161 0.243233,-0.4264973 0.09512,-0.405163 -0.112907,0.016268 -0.408168,0.4234737 -0.408168,0.562928 0,0.1678297 0.116626,0.1090525 0.313046,-0.157765 z M 2.8162446,3.9282059 C 2.824513,3.8847574 2.7325752,3.8175136 2.5327063,3.7208237 2.289226,3.6030329 2.2304747,3.5881836 2.2004143,3.6368226 c -0.070096,0.1134154 0.052947,0.2276457 0.3749411,0.3480861 0.1059539,0.039629 0.228023,0.010899 0.2408892,-0.056703 z m 0.3015764,0.00409 c 0,-0.044589 -0.038101,-0.1456483 -0.084669,-0.224574 C 2.959872,3.5835195 2.957065,3.5609228 3.012287,3.5397323 3.0589,3.5218333 3.076092,3.4530593 3.076092,3.2844336 c 0,-0.1982315 -0.011094,-0.2308131 -0.078591,-0.2308131 -0.09096,0 -0.136581,0.1612969 -0.099208,0.3507518 L 2.9222097,3.5256222 2.7748822,3.3648624 C 2.6450413,3.2231803 2.6348593,3.1967961 2.6890976,3.1425575 2.7332442,3.0984091 2.7431286,3.0340355 2.7240648,2.9148159 2.6903371,2.7038957 2.6732582,2.6780677 2.5675155,2.6780677 c -0.079793,0 -0.08421,0.016268 -0.058007,0.2138127 L 2.5378716,3.1056932 2.3606151,2.975335 C 2.1820665,2.8440309 1.9911593,2.8024458 1.9911593,2.894856 c 0,0.027424 0.051639,0.1039771 0.1147522,0.170099 L 2.2206638,3.1851781 2.1059115,3.1566045 c -0.103581,-0.025793 -0.1147522,-0.017771 -0.1147522,0.0824 0,0.087645 0.031086,0.1239595 0.1478854,0.1727614 0.1607809,0.06718 0.2276677,0.050694 0.2276677,-0.056114 0,-0.09428 0.3000828,0.2018974 0.4655675,0.459507 0.1335974,0.2079734 0.2855389,0.2703047 0.2855389,0.1171389 z M 22.905037,3.8151581 c 0.213766,-0.1710802 0.266784,-0.2529911 0.204249,-0.3155302 -0.101015,-0.1010111 -0.585,0.2688728 -0.532122,0.4066684 0.03857,0.1005124 0.114938,0.079284 0.327873,-0.091138 z M 4.3857053,3.3481081 C 4.3590078,3.0279916 4.3609927,3.0174379 4.4437773,3.0390855 4.5491317,3.0666361 4.6748535,2.8965468 4.6545484,2.7539315 4.6355888,2.6207607 4.4970268,2.6012354 4.4605958,2.7266043 4.438715,2.8018993 4.4275026,2.7765794 4.4113933,2.6154807 4.3965568,2.4671155 4.372447,2.4068425 4.3279369,2.4068425 c -0.099725,0 -0.1727107,0.3686054 -0.156984,0.7928334 0.015268,0.4118684 0.038002,0.4798729 0.1604229,0.4798729 0.076914,0 0.080266,-0.020455 0.05433,-0.3314342 z m 0.2180741,0.1743148 c 0.068638,-0.045411 0.1831668,-0.2850612 0.1831668,-0.3832725 0,-0.1632625 -0.1597669,-0.1024685 -0.2570749,0.097818 -0.1110376,0.2285502 -0.071412,0.3815977 0.073908,0.2854545 z M 4.1112769,3.3351862 C 4.130604,3.2355686 3.8968902,2.9922331 3.8128548,3.0244822 3.7105656,3.0637342 3.7284198,3.1535778 3.8682608,3.3032757 3.9960297,3.4400517 4.0885745,3.4522036 4.111277,3.3351737 Z M 16.40732,2.6363387 C 16.406649,2.1852664 16.39057,1.9994231 16.34417,1.9060988 16.25105,1.7188141 16.155476,1.7414493 16.167975,1.9478248 c 0.0056,0.091803 0.0218,0.4261296 0.0361,0.7429479 0.02515,0.557568 0.02884,0.5756294 0.115077,0.5633305 0.08634,-0.012304 0.08906,-0.031417 0.08818,-0.6177642 z m 3.268634,0.4763061 c 0.158059,-0.1917529 0.349838,-0.5860266 0.462158,-0.9501413 0.113042,-0.3664513 0.114588,-0.4859105 0.0062,-0.4859105 -0.06388,0 -0.100152,0.057474 -0.164566,0.2607994 l -0.08263,0.2608024 -0.0023,-0.2012679 c -0.0018,-0.1647487 -0.01496,-0.1988195 -0.07192,-0.1877768 -0.08834,0.017131 -0.155397,0.214014 -0.120394,0.353478 0.0202,0.080457 0.04701,0.1016247 0.108397,0.085574 0.04486,-0.011729 0.08156,-0.013168 0.08156,-0.00319 0,0.044343 -0.272792,0.553886 -0.380976,0.7116224 -0.200375,0.2921471 -0.05867,0.4266186 0.164402,0.1560039 z m 0.447387,0.020359 c 0.236021,-0.088306 0.32662,-0.1854661 0.229126,-0.2457199 -0.120868,-0.074704 -0.585122,0.1243429 -0.585122,0.2508657 0,0.1045428 0.06535,0.1035999 0.355996,-0.00514 z M 11.528596,2.8827171 c 0.104384,-0.162847 0.338981,-0.4403526 0.521329,-0.6166776 0.182347,-0.1763251 0.331541,-0.3435285 0.331541,-0.3715619 0,-0.02803 -0.04689,-0.050972 -0.104195,-0.050972 -0.220868,0 -1.064194,0.9406839 -1.064194,1.1870527 0,0.096856 0.03144,0.1482469 0.09069,0.1482469 0.01928,0 0.120451,-0.1332379 0.224834,-0.2960881 z m 0.441667,0.166922 c 0.258824,-0.1305434 0.388516,-0.3298425 0.214643,-0.3298425 -0.124125,0 -0.595956,0.2669742 -0.596121,0.3373022 -3.2e-4,0.1429382 0.08666,0.141238 0.381478,-0.00744 z m 4.124598,-0.048179 c -2.33e-4,-0.051637 -0.04631,-0.192472 -0.1024,-0.3129604 -0.07433,-0.1596636 -0.125147,-0.2190735 -0.187369,-0.2190735 -0.216853,0 0.03833,0.6157123 0.25888,0.6246551 0.01722,6.392e-4 0.03111,-0.040981 0.03089,-0.092621 z m 0.704472,-0.092957 c 0.187589,-0.2035083 0.225974,-0.3556194 0.08974,-0.3556194 -0.08837,0 -0.418251,0.381441 -0.418251,0.4836187 0,0.1171581 0.159996,0.054817 0.328511,-0.1279993 z M 4.1111296,2.8365774 c 0.013494,-0.1129614 -0.094808,-0.256184 -0.1740213,-0.230129 -0.078712,0.025889 -0.079654,0.1984169 -0.00157,0.284716 0.092783,0.1025262 0.1592774,0.08185 0.1755769,-0.054587 z M 19.475248,2.5946131 c 0,-0.3393894 -0.0075,-0.3755538 -0.07824,-0.3755538 -0.05425,0 -0.08624,0.039987 -0.104321,0.1303996 -0.06139,0.3069677 -0.0013,0.6207048 0.118936,0.6207048 0.0523,0 0.06362,-0.066838 0.06362,-0.3755506 z M 11.246061,2.4589942 c -0.0113,-0.3209541 -0.01847,-0.3451585 -0.106007,-0.3575915 -0.08892,-0.012624 -0.09386,6.393e-4 -0.09332,0.2503701 7.34e-4,0.3453024 0.0316,0.4514784 0.131169,0.4514784 0.07371,0 0.07928,-0.028158 0.06816,-0.344257 z m 1.067185,-0.034324 c 0.108027,-0.084976 0.151718,-0.2473404 0.06656,-0.2473404 -0.06331,0 -0.363761,0.1584907 -0.394387,0.2080437 -0.08555,0.1384316 0.163802,0.1683188 0.32783,0.039297 z m 8.060524,0.00224 c 0.150671,-0.093122 0.211012,-0.1998832 0.148372,-0.2625245 -0.09791,-0.097908 -0.473659,0.1860893 -0.401243,0.3032633 0.03934,0.063648 0.0997,0.053925 0.252871,-0.040739 z m -3.728511,-0.030459 c 0.107224,-0.125909 0.17704,-0.343295 0.126489,-0.3938452 -0.07115,-0.07115 -0.174241,-0.0059 -0.240217,0.1519832 -0.112293,0.2687513 -0.04004,0.4224221 0.113728,0.241862 z m -0.508261,-0.095961 c 0,-0.1022992 -0.112653,-0.3317538 -0.162876,-0.3317538 -0.01956,0 -0.05756,0.026527 -0.08447,0.058947 -0.0736,0.088683 0.04812,0.358333 0.161756,0.358333 0.05846,0 0.08559,-0.027103 0.08559,-0.085526 z M 11.792319,2.0337146 c 0.06947,-0.2758947 0.06087,-0.3570736 -0.03781,-0.3570736 -0.101674,0 -0.16588,0.1464156 -0.16588,0.3782672 0,0.1329247 0.01495,0.1641958 0.0785,0.1641958 0.05807,0 0.09065,-0.04826 0.125186,-0.1853894 z"
       id="path24" /><text
       xml:space="preserve"
       style="font-weight:500;font-size:13.6871px;font-family:Poppins;-inkscape-font-specification:'Poppins weight=750';fill:#f28123;fill-opacity:1;stroke-width:1.14059"
       x="11.175095"
       y="19.577925"
       id="text24"><tspan
         sodipodi:role="line"
         id="tspan24"
         x="11.175095"
         y="19.577925"
         style="fill:#f28123;fill-opacity:1;stroke-width:1.14059">TsuAqua</tspan></text></g></svg>
