<?xml version="1.0" encoding="UTF-8" standalone="no"?>
<!-- Created with Inkscape (http://www.inkscape.org/) -->

<svg
   width="500"
   height="500"
   viewBox="0 0 132.29166 132.29167"
   version="1.1"
   id="svg1"
   xml:space="preserve"
   inkscape:version="1.3 (0e150ed6c4, 2023-07-21)"
   sodipodi:docname="tsuaqua-squarelogo.svg"
   inkscape:export-filename="tsuaqua-titlelogo3.png"
   inkscape:export-xdpi="96"
   inkscape:export-ydpi="96"
   xmlns:inkscape="http://www.inkscape.org/namespaces/inkscape"
   xmlns:sodipodi="http://sodipodi.sourceforge.net/DTD/sodipodi-0.dtd"
   xmlns="http://www.w3.org/2000/svg"
   xmlns:svg="http://www.w3.org/2000/svg"><sodipodi:namedview
     id="namedview1"
     pagecolor="#ffffff"
     bordercolor="#000000"
     borderopacity="0.25"
     inkscape:showpageshadow="2"
     inkscape:pageopacity="0.0"
     inkscape:pagecheckerboard="0"
     inkscape:deskcolor="#d1d1d1"
     inkscape:document-units="mm"
     showgrid="true"
     inkscape:zoom="0.70332843"
     inkscape:cx="708.06181"
     inkscape:cy="128.67388"
     inkscape:window-width="1920"
     inkscape:window-height="974"
     inkscape:window-x="2869"
     inkscape:window-y="307"
     inkscape:window-maximized="1"
     inkscape:current-layer="layer1"><inkscape:grid
       id="grid24"
       units="px"
       originx="0"
       originy="0"
       spacingx="47.625"
       spacingy="15.875"
       empcolor="#0099e5"
       empopacity="0.30196078"
       color="#0099e5"
       opacity="0.14901961"
       empspacing="5"
       dotted="false"
       gridanglex="30"
       gridanglez="30"
       visible="true" /></sodipodi:namedview><defs
     id="defs1" /><g
     inkscape:label="Layer 1"
     inkscape:groupmode="layer"
     id="layer1"><rect
       style="fill:#f28123;stroke-width:0.516054"
       id="rect1"
       width="132.29167"
       height="132.29167"
       x="2.8421709e-14"
       y="0" /><path
       style="fill:#f9f9f9;fill-opacity:1;stroke-width:0.198314"
       d="m 17.591253,115.43944 c -2.10688,-2.13717 -3.0021,-3.71818 -3.15023,-5.56346 -0.17796,-2.21703 0.61516,-3.72333 3.53983,-6.72287 1.83589,-1.88288 2.22565,-2.80884 2.21015,-5.250779 -0.013,-2.03129 -0.27782,-4.04209 -0.75147,-5.703608 -0.23364,-0.819559 -0.39962,-1.064573 -0.78707,-1.161816 -0.82291,-0.206524 -1.53924,0.104834 -2.47791,1.076796 -1.03043,1.067063 -1.27993,1.758572 -1.58608,4.395815 -0.13399,1.154171 -0.352,2.076072 -0.56278,2.379808 -0.93244,1.343614 -4.4584997,2.234644 -8.462188,2.138394 -3.29277,-0.0791 -3.32477,-0.17747 -0.87311,-2.682102 1.04187,-1.064392 2.3214998,-2.450684 2.8436195,-3.080656 1.2763994,-1.54005 1.7007791,-1.730178 3.8619385,-1.730178 0.97998,0 2.01786,-0.08972 2.30641,-0.199465 0.79592,-0.302596 2.81027,-2.320631 3.4735,-3.47985 0.55991,-0.978613 0.58862,-1.140747 0.58189,-3.285903 -0.004,-1.241064 -0.0854,-3.13335 -0.18115,-4.20506 -0.1997,-2.235399 -0.46937,-2.711862 -1.53484,-2.711862 -0.58143,0 -0.87821,0.218332 -2.24467,1.65133 -0.86606,0.908222 -2.02476,1.896296 -2.57489,2.195719 -0.9131,0.49697 -1.06475,0.523495 -1.7404997,0.304497 C 7.8931842,83.289273 4.289945,81.274764 3.712125,80.578536 c -0.21514,-0.259206 -0.0817,-0.438712 0.90102,-1.211945 1.9434201,-1.529114 4.0832589,-2.532962 5.636228,-2.644082 l 1.33549,-0.09558 1.14703,1.215391 c 1.11425,1.180653 1.17605,1.215395 2.16224,1.215395 1.45044,0 2.72095,-0.498877 3.84556,-1.510002 1.15922,-1.042245 1.74029,-2.151426 1.91667,-3.658695 0.17197,-1.46967 -0.16922,-1.858443 -1.48536,-1.692488 -2.77928,0.350409 -3.08017,0.347368 -3.78596,-0.03897 -0.81148,-0.443986 -1.58047,-1.671346 -1.57892,-2.519973 5.8e-4,-0.327263 0.16641,-0.958943 0.36846,-1.403807 0.94015,-2.070009 3.34152,-2.465965 4.22505,-0.696658 0.25391,0.508471 0.28586,0.771682 0.12919,1.064416 -0.17767,0.331968 -0.32866,0.367375 -1.03143,0.241669 -0.45281,-0.08094 -1.22488,-0.158545 -1.71572,-0.172234 l -0.89242,-0.02471 -0.0617,0.857502 c -0.0726,1.008734 0.1584,1.349546 1.2516,1.846838 1.60047,0.728037 3.29343,0.333392 4.15504,-0.96859 1.4233,-2.150793 0.53241,-8.087131 -1.92341,-12.816348 -0.93763,-1.805613 -2.53272,-3.591754 -3.3998,-3.806995 -1.4159,-0.351471 -2.25303,0.573513 -2.54726,2.814633 -0.28636,2.181143 -0.47949,2.888655 -0.99888,3.659394 -0.65348,0.969696 -1.5972297,1.529825 -2.7821391,1.651235 -0.5671297,0.05817 -1.9844888,0.195854 -3.1496889,0.306017 -1.16519,0.110117 -2.2361,0.224656 -2.37979,0.254454 -0.37886,0.07837 -0.25594,-1.245288 0.26181,-2.819163 0.9939,-3.02131 2.37771,-4.989896 3.7714398,-5.365193 0.5028597,-0.135349 1.1854294,-0.128031 2.1611188,0.02329 1.9307794,0.299556 2.9300594,0.01386 4.1729594,-1.191983 0.74425,-0.72224 1.01746,-1.181005 1.35039,-2.267522 0.61182,-1.996694 0.75632,-3.944142 0.33982,-4.579815 -0.38689,-0.590563 -0.90923,-0.633547 -2.50215,-0.205981 -1.39743,0.375073 -2.8405897,0.377022 -3.5603894,0.0048 C 7.6573345,45.32369 7.0403148,42.698915 7.9655842,41.437406 9.2791236,39.64651 12.608603,39.809925 12.608603,41.6653 c 0,0.926387 -0.44345,1.250675 -1.25537,0.918021 -0.34575,-0.141797 -0.9576,-0.353976 -1.3596697,-0.471736 -1.5180094,-0.444668 -2.2837388,0.596024 -1.6337691,2.220432 0.4449797,1.112133 1.1867491,1.489603 2.6639988,1.355656 1.98771,-0.180243 3.52065,-1.322615 4.43944,-3.308336 0.36584,-0.790673 0.41631,-1.258871 0.40724,-3.778107 -0.009,-2.599733 -0.0755,-3.1329 -0.68831,-5.553114 -0.73578,-2.905514 -0.86001,-4.863954 -0.51236,-8.076747 0.2019,-1.865841 0.0487,-2.235685 -0.92616,-2.235685 -0.48221,0 -0.81193,0.232804 -1.66529,1.175791 -1.19399,1.319398 -2.02149,1.699892 -3.3671691,1.548204 C 7.8685345,25.364739 6.174605,24.427052 5.131655,23.478274 l -0.43672,-0.397291 0.49966,-0.655081 c 0.61283,-0.803473 1.9865498,-1.889554 1.8108498,-1.431699 -0.13338,0.347595 0.4074697,0.946379 0.8591997,0.951239 0.2331497,0.0031 0.2304497,0.03632 -0.0156,0.195284 -0.16361,0.105707 -0.5319597,0.19361 -0.8185597,0.195281 -0.5372497,0.0031 -1.0790498,0.453408 -0.8980198,0.746329 0.15489,0.250602 6.136458,0.176672 6.220988,-0.07686 0.0879,-0.263579 -0.31519,-0.600433 -0.83555,-0.698301 -0.29707,-0.0559 -0.38138,-0.20476 -0.33589,-0.593122 0.10218,-0.87242 -1.4373397,-1.790727 -1.6966197,-1.012031 -0.0452,0.135801 0.18594,0.515106 0.51368,0.842845 l 0.5958997,0.595901 H 9.6248633 c -0.6923194,0 -0.9440794,-0.07093 -0.8792494,-0.247884 0.13695,-0.373676 -0.14307,-0.696175 -0.8697694,-1.001736 L 7.2213148,20.615941 7.8290945,20.364197 c 0.3676497,-0.152288 1.1444791,-0.221423 1.9662688,-0.174989 1.1964997,0.06759 1.5119297,0.176719 2.6450897,0.915011 1.45744,0.949556 2.21908,1.054869 3.02788,0.418668 0.41187,-0.323969 0.51962,-0.561039 0.47296,-1.040553 -0.0496,-0.509245 -0.24213,-0.729315 -1.07006,-1.222898 -0.55529,-0.331034 -1.889,-0.905016 -2.9638,-1.275484 -2.3480297,-0.809365 -3.1805691,-1.486321 -3.9699888,-3.22812 -0.4688397,-1.03448 -0.5645997,-1.517505 -0.5734997,-2.89309 -0.0125,-1.9347885 0.2603,-2.3265215 1.4766894,-2.1203785 1.2048191,0.204198 3.4665691,1.4339445 4.2997691,2.3378675 0.6825,0.740434 0.85709,1.135919 1.32397,2.999117 0.29578,1.180425 0.7107,2.48515 0.92203,2.899394 0.78282,1.534472 2.24365,2.078379 2.89837,1.07914 0.43776,-0.668084 0.18048,-1.538787 -1.13004,-3.824341 -1.44406,-2.518477 -1.35856,-3.391382 0.56177,-5.7348855 0.90238,-1.10124 1.53809,-1.132699 2.42716,-0.120153 1.23456,1.4060875 1.87521,3.7060255 1.3242,4.7538885 -0.16528,0.314311 -0.75372,1.014339 -1.30765,1.555602 -0.85801,0.838408 -1.00714,1.094678 -1.00714,1.730696 0,0.582397 0.11176,0.819816 0.50829,1.07961 0.48273,0.316299 0.58493,0.309055 2.03274,-0.144155 2.06139,-0.645299 4.26774,-0.620965 7.59584,0.08385 1.98258,0.419805 3.04072,0.529734 5.0992,0.529734 3.14179,0 4.34686,-0.359256 5.81667,-1.734083 1.29134,-1.207905 1.75361,-2.228426 1.75361,-3.871293 0,-1.252623 -0.0308,-1.338643 -0.64452,-1.799674 -0.7941,-0.596512 -1.69992,-0.804933 -2.37796,-0.547145 -0.83727,0.318336 -0.87161,0.908906 -0.1407,2.419803 0.74057,1.530827 0.63366,1.962708 -0.48584,1.962708 -1.35017,0 -2.06409,-1.259581 -1.72939,-3.051158 0.21218,-1.135871 0.60424,-1.594333 1.73149,-2.024832 1.64353,-0.6276635 3.20792,-0.140353 4.19226,1.305971 0.54947,0.807329 0.55957,1.484907 0.0496,3.325274 -0.21812,0.787219 -0.39663,1.641699 -0.39663,1.898864 0,1.10042 1.2099,1.386598 3.43001,0.811326 2.0623,-0.534397 3.55465,-1.437243 4.40574,-2.665349 0.8823,-1.27316 0.95685,-1.871674 0.47131,-3.783494 -0.25559,-1.006441 -0.37911,-1.9186115 -0.30164,-2.2274225 0.24209,-0.964698 1.30628,-1.905396 3.17893,-2.810108 1.87681,-0.906733 4.77558,-1.856226 4.99551,-1.636291 0.1651,0.1651 -0.48809,6.8706225 -0.7096,7.2845175 -0.0933,0.174396 -0.60912,0.728099 -1.14617,1.230445 -0.80575,0.753695 -1.18109,0.951939 -2.14701,1.134036 -3.04356,0.573769 -3.3351,0.664985 -3.88579,1.215681 -0.42992,0.429919 -0.55697,0.743107 -0.55697,1.372898 0,0.704175 0.12009,0.932631 0.87701,1.668279 1.07707,1.046786 3.01031,2.075994 5.36994,2.858793 2.71451,0.900551 3.93933,1.106891 6.64359,1.119211 2.27146,0.01051 2.56194,-0.03071 3.47053,-0.490774 1.37084,-0.694119 1.9379,-1.77947 1.8374,-3.516774 -0.0912,-1.576503 -0.70154,-2.315979 -1.91151,-2.315979 -1.4488,0 -1.63556,0.508498 -1.00215,2.728523 0.31823,1.115428 0.10033,1.414472 -0.89737,1.231115 -0.99604,-0.183056 -1.4969,-0.825785 -1.4969,-1.920906 0,-0.849953 0.0876,-1.044567 0.7828,-1.739809 2.38818,-2.388178 6.16803,-0.718757 5.3646,2.369326 -0.45078,1.732716 -0.4669,2.369555 -0.0709,2.808392 0.31191,0.345727 0.52879,0.392372 1.40556,0.302374 2.73094,-0.28038 4.99692,-2.780001 5.00755,-5.523913 0.006,-1.475311 -0.0664,-1.62405 -1.18513,-2.445294 -1.3588,-0.997445 -1.65031,-1.811595 -1.28088,-3.577289 0.29494,-1.4096565 0.86989,-2.6664255 2.00686,-4.3867935 1.02393,-1.549312 1.10034,-1.581196 1.96812,-0.821243 0.86886,0.76091 2.91722,3.795297 3.25701,4.824886 0.20878,0.6325705 0.17703,0.8223985 -0.3007,1.7988385 -0.31001,0.633587 -1.23749,1.830797 -2.21043,2.853186 -1.96568,2.065603 -2.21751,2.731333 -1.39432,3.685976 l 0.50018,0.580043 2.84193,-0.01882 c 3.04141,-0.02021 4.86591,-0.333859 6.35173,-1.091869 1.20111,-0.612762 2.84709,-2.253563 3.42595,-3.415184 0.46608,-0.935274 0.49395,-1.143483 0.37668,-2.811748 -0.15682,-2.2312505 0.003,-2.5927565 1.85315,-4.1906315 0.73986,-0.63898 2.14468,-1.905167 3.12185,-2.813769 1.61951,-1.505885 1.799318,-1.621024 2.032738,-1.301793 0.307347,0.420275 0.312287,0.78494 0.0584,4.240712 -0.32955,4.4842525 -0.892158,6.2900315 -2.103198,6.7504695 -0.25516,0.09707 -1.2825,0.318417 -2.28292,0.491987 -2.38354,0.41356 -3.59401,1.032596 -4.34995,2.224581 -0.72549,1.143985 -0.77578,2.099722 -0.13259,2.521134 0.61366,0.402093 2.97224,0.714141 5.49566,0.727083 3.436298,0.01764 4.076552,-0.277004 6.940647,-3.194034 2.30137,-2.343884 3.36007,-2.992919 5.12015,-3.138879 2.33043,-0.193249 4.28063,0.713805 6.87861,3.19929 1.65175,1.580223 1.67338,1.531601 -1.18908,2.672592 -1.09075,0.434756 -2.75284,1.112942 -3.69354,1.507045 -2.90593,1.217442 -3.67173,1.169092 -5.78962,-0.365502 -1.51544,-1.098054 -2.113227,-1.18333 -3.887745,-0.554635 -1.343334,0.475917 -1.870612,0.543618 -4.969032,0.637964 l -3.46622,0.105571 -0.19567,0.557791 c -0.15778,0.449759 -0.10897,0.721233 0.25203,1.40174 0.37721,0.711012 0.73536,0.998026 2.27372,1.822004 1.73613,0.929913 1.85504,1.036258 2.41675,2.160906 0.53062,1.062429 0.5912,1.376284 0.59496,3.082448 0.003,1.469656 -0.0732,2.017755 -0.33791,2.421793 -0.31737,0.484513 -0.3955,0.507465 -1.0822,0.317862 -2.08559,-0.57585 -4.09127,-1.915116 -4.73639,-3.162621 -0.39114,-0.756352 -0.35659,-2.028524 0.1078,-3.972912 0.51911,-2.173452 0.35316,-2.799521 -1.14942,-4.33609 -0.97028,-0.992252 -1.26017,-1.172072 -2.08441,-1.292923 -1.96623,-0.288333 -2.41116,0.449533 -1.71785,2.848905 l 0.44475,1.539149 -0.4024,0.784926 c -0.82301,1.605365 -2.1056,2.223184 -3.84219,1.850741 -2.19404,-0.470537 -3.24929,-3.014746 -1.67754,-4.044593 0.59749,-0.391489 1.49086,-0.317791 1.78185,0.147038 0.1595,0.254752 0.12757,0.573633 -0.12598,1.257667 -0.52085,1.405297 0.0511,2.064632 1.5475,1.783906 0.94348,-0.17701 1.47872,-0.933786 1.47872,-2.090774 0,-1.297129 -0.78921,-2.35526 -2.31577,-3.104837 -1.02907,-0.505308 -1.35979,-0.566281 -3.03875,-0.56022 l -1.884,0.006 -3.17306,1.499307 c -1.74518,0.8246 -3.53002,1.614355 -3.96632,1.754983 -1.4987,0.483057 -1.884,0.763432 -1.884,1.370892 0,0.309711 0.17789,0.78927 0.39532,1.065695 0.37959,0.482569 0.49608,0.505613 2.92517,0.578617 2.98917,0.08977 3.60349,0.329347 5.13086,2.000529 1.53018,1.674265 3.05098,4.92084 3.05098,6.513173 v 0.629726 l -2.52854,-0.112712 c -1.45938,-0.06503 -2.98974,-0.251953 -3.61927,-0.442087 -1.3077,-0.394952 -2.69945,-1.16935 -2.95299,-1.643094 -0.10112,-0.188947 -0.32573,-1.363997 -0.49912,-2.611242 -0.36852,-2.650704 -0.70278,-3.288986 -2.44966,-4.677665 -1.67838,-1.334208 -2.66601,-1.871173 -4.78615,-2.602128 -1.8803,-0.648246 -3.22979,-0.82015 -3.76716,-0.479849 -0.17456,0.110582 -0.32574,0.745293 -0.41257,1.732229 -0.15751,1.789938 -0.35112,2.239408 -1.26478,2.93629 -0.96779,0.738172 -1.69489,0.819421 -2.83221,0.316512 -1.87742,-0.830189 -2.66567,-2.104338 -2.19461,-3.54744 0.31115,-0.953306 1.41163,-1.553734 2.19417,-1.197181 0.79688,0.363086 0.83997,0.877416 0.1403,1.674296 -0.7432,0.846458 -0.81088,1.708061 -0.16942,2.15732 0.82777,0.5798 2.4549,0.206005 2.92473,-0.671866 0.31391,-0.586606 0.24352,-2.545455 -0.119,-3.309357 -0.66326,-1.397776 -3.39432,-3.155389 -6.61786,-4.259013 -1.88995,-0.647061 -4.0857,-0.591967 -7.93264,0.19905 -3.52539,0.724878 -3.76801,0.878815 -3.76801,2.390728 0,1.185439 0.871,2.989182 1.95419,4.046888 0.43031,0.420199 1.48037,1.223156 2.33344,1.784362 2.05351,1.350902 2.50428,2.180304 2.61974,4.820177 0.093,2.125802 -0.55489,5.5541 -1.08826,5.758779 -0.49232,0.188941 -3.16964,-1.315658 -4.4836,-2.51966 -1.37398,-1.25899 -2.12879,-2.547933 -2.12879,-3.635184 0,-0.394587 0.23813,-1.321859 0.52919,-2.06059 0.43338,-1.100038 0.52967,-1.66626 0.53195,-3.128016 0.006,-3.711024 -1.60444,-5.848521 -5.2122,-6.918942 -1.23438,-0.366245 -2.4445,-0.412314 -3.00137,-0.114377 -0.34788,0.186184 -0.38359,0.436392 -0.38359,2.687116 0,3.729282 -0.26455,4.048666 -3.35355,4.048666 -2.21832,0 -2.35328,0.126993 -2.59178,2.438668 -0.3183,3.085062 -0.82166,3.542263 -4.03951,3.669068 -1.21638,0.04799 -2.33253,0.184514 -2.48033,0.303495 -0.4906,0.394953 -0.18885,2.311088 0.62248,3.952696 0.91005,1.841384 2.20482,3.097363 3.82091,3.706497 1.72285,0.649352 3.99473,0.505917 6.02873,-0.380611 1.71787,-0.748763 2.6912,-0.72851 4.07911,0.08493 1.58563,0.929245 4.26005,4.392067 4.26005,5.51591 0,0.196425 -0.58336,0.487078 -1.73526,0.86466 -1.50285,0.492604 -2.04073,0.568788 -4.0159,0.568788 -2.94638,0 -3.6838,-0.350453 -4.80188,-2.282036 -1.13864,-1.967131 -2.17399,-3.059015 -3.55498,-3.74911 -1.99163,-0.995231 -3.59604,-0.765498 -3.9122,0.56016 -1.77811,7.455496 -1.71856,9.038517 0.50198,13.344423 2.13593,4.141822 4.49927,6.306141 6.88603,6.306141 0.93512,0 1.14078,-0.07182 1.49528,-0.522526 0.54234,-0.689491 0.57004,-2.246837 0.0484,-2.71896 -0.54532,-0.493354 -1.15922,-0.398977 -2.0474,0.314765 l -0.80012,0.643008 -0.4773,-0.55491 c -0.62872,-0.730924 -0.60224,-1.231616 0.10239,-1.936243 1.17395,-1.173958 3.17476,-0.596995 4.11554,1.186776 0.58749,1.113879 0.59119,2.144624 0.0108,3.013376 -0.66829,1.000369 -1.56155,1.367282 -3.32951,1.367648 -1.96582,4.22e-4 -2.27208,0.21358 -2.08635,1.452079 0.28848,1.923728 2.4478,5.222295 4.49629,6.868507 0.84514,0.679173 2.19388,0.97954 4.46389,0.994093 1.35404,0.0085 2.19723,0.591267 2.88892,1.99602 0.64549,1.310932 1.15556,3.726466 1.21307,5.744804 l 0.0424,1.487367 -0.56071,0.06426 c -1.40607,0.16111 -5.46751,-1.57401 -7.02169,-2.999784 -1.25011,-1.146823 -1.59602,-2.039968 -1.82823,-4.720543 -0.17851,-2.060837 -0.24087,-2.298953 -0.70854,-2.705889 -0.57511,-0.500422 -1.51476,-0.587517 -1.85933,-0.17232 -0.12501,0.150661 -0.36275,0.797649 -0.52829,1.437796 -0.16554,0.64014 -0.70621,2.145565 -1.20149,3.345377 -1.52993,3.706236 -1.69616,4.264102 -1.69616,5.692136 0,1.689845 0.44633,3.045339 1.35062,4.101802 0.89081,1.040705 1.60267,1.410916 2.71296,1.410916 1.24336,0 1.9209,-0.695049 1.9209,-1.970531 0,-0.508678 -0.10709,-1.031976 -0.23798,-1.16287 -0.32948,-0.329497 -1.05501,-0.297416 -1.78252,0.07889 -1.28881,0.666474 -2.09224,-0.564505 -1.15014,-1.762183 0.58656,-0.745688 1.40858,-0.856424 2.48591,-0.334913 1.09903,0.532041 1.67631,1.536174 1.67631,2.915829 0,1.319805 -0.52843,2.227939 -1.64622,2.829033 l -0.91867,0.494005 -1.34524,-0.37417 c -2.818,-0.783848 -3.42757,-0.652938 -3.42757,0.736026 0,1.581444 1.16803,3.182103 3.00642,4.119971 0.97879,0.49934 1.87682,0.452968 4.35123,-0.224607 1.47664,-0.404349 1.81137,-0.435384 2.49319,-0.231069 1.514,0.453584 3.43794,2.932994 3.91411,5.044141 0.10342,0.458433 0.0302,0.586492 -0.49043,0.855626 -1.43328,0.741154 -4.81995,0.537135 -6.17249,-0.371842 -0.37514,-0.252115 -1.08194,-1.151368 -1.64834,-2.097104 -1.29743,-2.166437 -2.67831,-2.961947 -3.57862,-2.061647 -0.29516,0.295182 -0.31515,0.594148 -0.16908,2.528536 0.22245,2.945633 0.16791,3.886799 -0.33606,5.799663 -0.55789,2.11751 -0.44478,2.63961 0.93393,4.31107 1.05207,1.27549 1.10991,1.40294 1.11854,2.46523 0.007,0.80614 -0.19822,1.70396 -0.73038,3.20248 -0.40671,1.14529 -1.01139,2.88552 -1.34372,3.86719 -0.91189,2.69358 -0.84525,2.68018 -2.9101,0.58566 z m 1.25379,-5.98979 c 0.0282,-5.12211 -0.0288,-5.4987 -0.70888,-4.67972 -0.21174,0.25498 -0.27218,1.25689 -0.27218,4.5117 0,4.4538 0.10714,5.34101 0.63254,5.23827 0.28463,-0.0557 0.32401,-0.6286 0.34852,-5.07025 z m -1.81105,2.22434 c 0.44017,-0.92305 0.42186,-1.28234 -0.0654,-1.28234 -0.23795,0 -0.55849,0.26068 -0.79252,0.64452 -0.53416,0.8761 -0.51184,1.33865 0.0646,1.33865 0.33022,0 0.55285,-0.19666 0.79327,-0.70083 z m 3.70558,0.31942 c 0,-0.52616 -0.94403,-1.60175 -1.40584,-1.60175 -0.43296,0 -0.47568,0.23564 -0.15521,0.8559 0.56281,1.08931 1.56105,1.56628 1.56105,0.74585 z m -4.18929,-3.36256 c 1.11937,-1.93953 1.19621,-2.20551 0.63723,-2.20551 -0.73767,0 -2.19911,2.23525 -2.19911,3.36348 0,1.05107 0.50159,0.67921 1.56188,-1.15797 z m 5.07933,-0.0166 c 0.16063,-0.50613 -0.11487,-0.99809 -0.98852,-1.76517 -1.49873,-1.31589 -1.94131,-0.49516 -0.56645,1.05045 1.04105,1.17032 1.36334,1.31845 1.55497,0.71468 z M 9.3370136,99.880454 c 0.7986894,-0.549507 1.2773394,-1.266672 1.0182994,-1.525711 -0.4004597,-0.400452 -2.9224185,1.40989 -2.6279085,1.886427 0.2328897,0.37683 0.6848297,0.2756 1.6096091,-0.360716 z M 7.8292145,99.113515 c 0.8289494,-0.531132 2.3103585,-1.368737 3.2920285,-1.861344 2.06582,-1.036639 2.79993,-1.573632 2.59796,-1.900447 -0.23783,-0.384817 -0.63928,-0.271516 -2.69712,0.761158 -1.0867797,0.545362 -2.0221994,0.991582 -2.0787194,0.991582 -0.0565,0 -0.1027597,-0.127894 -0.1027597,-0.284156 0,-0.367138 -0.6196897,-0.560281 -1.2721894,-0.396508 -0.3818397,0.09585 -0.5126597,0.256307 -0.5126597,0.628904 0,0.460953 0.0545,0.491398 0.6941097,0.38762 0.3817497,-0.06198 0.6941094,-0.08217 0.6941094,-0.04468 0,0.03706 -0.3792797,0.290954 -0.8428494,0.563589 -1.1047794,0.649843 -1.8166395,1.423634 -1.6674195,1.812475 0.0649,0.16915 0.17884,0.307542 0.25317,0.307542 0.0743,0 0.8133898,-0.434577 1.6423395,-0.965683 z m 4.1610085,0.642474 c 0.57101,-0.39993 1.60997,-2.008135 1.60997,-2.492046 0,-0.664497 -0.74703,-0.397222 -1.35561,0.485047 -0.31976,0.463566 -0.77026,1.012849 -1.0011,1.220628 -0.90422,0.813891 -0.26045,1.491832 0.74674,0.786371 z m 18.01637,-2.784512 c 0.12755,-0.387605 -1.02914,-1.537015 -1.40255,-1.39372 -0.4434,0.170137 -0.41322,0.572185 0.0911,1.213276 0.42576,0.541266 1.15954,0.642214 1.31149,0.180455 z m -2.12764,-0.375595 c 0,-0.394939 -1.60185,-2.267631 -1.93981,-2.267768 -0.40678,-1.38e-4 -0.50881,0.559729 -0.18999,1.042605 0.82617,1.251273 2.12979,2.001186 2.1298,1.225163 z m 3.53124,-0.428635 c 0.0437,-0.295563 -0.19207,-0.59189 -0.84284,-1.05925 -0.99642,-0.715572 -1.11068,-0.872425 -0.49261,-0.676259 0.65249,0.207119 1.3739,-0.05754 1.3739,-0.504106 0,-0.338714 -0.13537,-0.392848 -0.98173,-0.392848 -0.67359,0 -1.03485,0.09495 -1.15097,0.302407 -0.14789,0.264291 -0.29874,0.245471 -1.19508,-0.148703 -0.5642,-0.248132 -1.02793,-0.506672 -1.0305,-0.57451 -0.003,-0.06787 0.46385,-0.253265 1.03648,-0.411999 0.83212,-0.230691 1.05466,-0.381063 1.10838,-0.748873 0.0638,-0.436526 0.0222,-0.454015 -0.80705,-0.340382 -1.26163,0.172892 -1.96143,0.483606 -2.07598,0.921663 -0.061,0.233161 -0.30568,0.406821 -0.62534,0.443795 -0.98769,0.114391 -0.57265,0.619347 1.06136,1.291395 0.87259,0.358915 2.1666,1.052571 2.87558,1.541536 1.37577,0.948808 1.65043,1.004827 1.7464,0.356111 z m -20.6608,-0.649317 c 0.80392,0 1.06595,-0.07144 1.06595,-0.290478 0,-0.49267 -0.78306,-0.749489 -2.0138597,-0.66046 -1.2602794,0.09111 -1.6817291,0.336817 -1.4799491,0.862649 0.0983,0.256117 0.2737297,0.305923 0.7452294,0.211635 0.33918,-0.06787 1.0963594,-0.123376 1.6826294,-0.123376 z m 0.46528,-13.184406 c 0.58379,-0.368562 0.79899,-0.637245 0.79899,-0.997689 0,-0.271324 -0.0579,-0.493294 -0.12865,-0.493294 -0.0708,0 -0.69545,0.287911 -1.38821,0.63983 -1.0192997,0.517783 -1.2595594,0.73058 -1.2595594,1.11552 0,0.421744 0.0668,0.46233 0.5892197,0.357869 0.3240697,-0.06487 0.9487597,-0.344847 1.3882097,-0.622226 z M 8.5163839,82.018049 c 0.6401797,-0.50358 0.6759197,-0.970402 0.0763,-0.996968 -1.1409894,-0.05056 0.6438997,-0.338667 2.2310491,-0.36015 1.83837,-0.02471 2.31146,-0.185208 2.1083,-0.714654 -0.11684,-0.304497 -0.39288,-0.331254 -2.55743,-0.247752 -2.6911385,0.103755 -4.348748,0.558751 -4.477838,1.229054 -0.0653,0.338905 0.0298,0.361195 1.0890998,0.255403 1.1053194,-0.110445 1.1346294,-0.102089 0.6152397,0.1748 -0.6958497,0.37089 -0.7457497,1.071283 -0.0763,1.071283 0.25797,0 0.7041897,-0.184924 0.9915794,-0.411003 z m 0.12591,-2.928524 c 0,-0.408103 -0.7564397,-0.825099 -1.4966991,-0.825099 -0.6327897,0 -0.6603397,0.648793 -0.0402,0.947853 0.7466297,0.360103 1.5369491,0.296988 1.5369491,-0.122761 z m 3.3713791,-0.04468 c 0,-0.751962 -1.98928,-2.241637 -2.4192597,-1.811678 -0.3230497,0.323081 -0.0624,0.756824 0.8531997,1.420113 0.83432,0.604394 1.56606,0.78734 1.56606,0.391565 z m 21.61645,-0.096 c 0,-0.629684 -0.61443,-1.431819 -2.61043,-3.407892 -1.98547,-1.965636 -3.97814,-3.62248 -4.35677,-3.62248 -0.4403,0 -0.39174,0.650433 0.086,1.152157 0.45629,0.479179 0.47912,0.572754 0.22408,0.918483 -0.17573,0.2382 -0.28397,0.861866 -0.28397,1.636114 0,1.095377 0.0467,1.251152 0.37541,1.251152 0.47202,0 0.61617,-0.372222 0.61617,-1.591038 0,-0.530009 0.0669,-1.003953 0.14874,-1.053199 0.0818,-0.04925 0.76129,0.48093 1.50997,1.178196 1.06672,0.993436 1.27053,1.267722 0.942,1.267722 -0.35272,0 -0.4188,0.11805 -0.41653,0.743697 0.004,1.127368 0.19545,1.636093 0.61537,1.636093 0.31711,0 0.37501,-0.157211 0.38347,-1.041152 l 0.0101,-1.041162 1.03119,1.135236 c 1.00589,1.107364 1.72531,1.456826 1.72531,0.838073 z m 0.51564,-2.897854 c 0.25061,-0.405534 -0.68949,-0.959464 -1.62835,-0.959464 -0.72307,0 -0.87045,0.06378 -0.87045,0.376973 0,0.575133 2.18811,1.085242 2.4988,0.582534 z m -1.22017,-2.292995 c 0.24051,-0.626799 -0.97878,-1.165802 -3.13067,-1.383945 -1.12696,-0.114255 -1.15613,-0.104929 -1.09073,0.344609 0.0587,0.403493 0.26149,0.503235 1.60317,0.788372 0.84479,0.179503 1.59591,0.386385 1.66916,0.459621 0.25492,0.254881 0.81876,0.130926 0.94907,-0.20859 z M 7.0331948,61.258881 c 0.22991,-0.190863 0.4740497,-0.637098 0.5425497,-0.991583 0.10861,-0.56203 0.0713,-0.64453 -0.2917797,-0.64453 -0.45166,0 -1.0214598,0.879518 -1.0214598,1.576691 0,0.497775 0.2221001,0.514894 0.7706898,0.05937 z M 6.3978451,59.855787 C 6.9571048,59.22042 7.9993842,58.305706 8.7140239,57.823039 10.038723,56.928366 10.379483,56.521038 10.065693,56.207244 9.7502033,55.891769 8.9269239,56.259064 7.4821545,57.359777 6.5563351,58.065135 6.064185,58.335595 6.064185,58.13901 c 0,-0.21054 -0.20391,-0.301077 -0.67789,-0.301077 -0.94766,0 -1.30527,0.175895 -1.30527,0.641955 0,0.358153 0.0957,0.390424 0.8916,0.300695 l 0.89159,-0.100587 -0.59412,0.807873 c -1.31111,1.782834 -0.38397,2.085215 1.1277501,0.367848 z m 2.5648585,0.606781 c 0.36427,-0.239864 1.0677994,-1.777544 1.0677994,-2.333811 0,-0.894795 -0.6394794,-0.4917 -1.3499191,0.850906 -0.3606997,0.681668 -0.6008497,1.328317 -0.5336697,1.437027 0.14318,0.231688 0.5029297,0.251888 0.8157894,0.04562 z M 8.5617339,56.221297 c 0.23235,-0.375975 -0.5292697,-0.763378 -1.4942891,-0.760136 -1.0590298,0.0031 -1.5058598,0.22803 -1.3358498,0.671059 0.0943,0.245897 0.41143,0.317472 1.4053998,0.317472 0.7545094,0 1.3417591,-0.09418 1.4247391,-0.228409 z M 31.250333,46.571001 c 0,-0.446789 -0.99453,-1.425315 -1.44864,-1.425315 -0.50081,0 -0.41594,0.731545 0.15057,1.298076 0.58082,0.580812 1.29807,0.651129 1.29807,0.127321 z m -2.44076,-0.164314 c 0.17988,-0.468761 -2.24379,-2.803626 -2.5708,-2.476603 -0.30904,0.309044 0.29333,1.433292 1.18955,2.220182 0.74491,0.654045 1.1965,0.737877 1.38125,0.256402 z m 4.16709,-0.601312 c 0.37376,-0.974021 -5.84754,-4.074043 -7.163,-3.56925 -0.71058,0.27265 -0.28823,0.697428 1.11829,1.124628 1.54032,0.467868 2.54925,0.940438 4.40587,2.063675 1.34062,0.81108 1.46288,0.839487 1.63884,0.380947 z m -0.3877,-2.44236 c 0.49923,-0.0015 0.64453,-0.08674 0.64453,-0.377304 0,-0.479167 -0.74966,-0.677035 -1.90733,-0.503425 -0.94591,0.141876 -1.16929,0.327031 -0.98231,0.814271 0.0925,0.241202 0.29067,0.28516 0.86041,0.190968 0.40709,-0.06726 1.03021,-0.123348 1.3847,-0.124577 z m -3.37137,-1.817154 c 1.52505,-0.604315 1.36644,-1.278567 -0.21727,-0.92358 -1.18789,0.266261 -2.11294,0.70832 -2.11294,1.009691 0,0.663146 0.48459,0.645239 2.33021,-0.08617 z m 12.74181,-6.472645 c 0,-1.119681 -0.51395,-2.885694 -1.3638,-4.686233 -0.77436,-1.640604 -1.42268,-2.436253 -1.79676,-2.205063 -0.34209,0.211414 -0.24725,0.643295 0.3887,1.770115 0.68817,1.219372 1.78028,4.103577 1.78028,4.701635 0,0.571825 0.35878,1.171144 0.70108,1.171144 0.20402,0 0.29049,-0.223747 0.29049,-0.751598 z m -1.62621,-1.084744 c 0.0537,-1.026839 0.0205,-1.138394 -0.33806,-1.138394 -0.29722,0 -0.43035,0.174909 -0.52751,0.692797 -0.17991,0.959077 0.0381,1.730104 0.46614,1.64867 0.26531,-0.05042 0.35304,-0.314691 0.39944,-1.203073 z m 35.4606,0.959427 c 0.13692,-0.356856 -0.18122,-0.970182 -1.07947,-2.081067 l -0.70806,-0.87567 0.6847,0.160174 c 1.29659,0.303328 1.8746,0.243618 1.8746,-0.193685 0,-0.463643 -0.96785,-0.863715 -2.1319,-0.881229 -0.55276,-0.0076 -0.74368,0.06987 -0.74368,0.304664 0,0.21073 -0.34162,0.0091 -1.02648,-0.607051 -1.84718,-1.660762 -3.33648,-2.289304 -3.33648,-1.408107 0,0.162981 0.51314,0.650555 1.14032,1.083513 0.62717,0.432961 1.49729,1.124815 1.93358,1.537449 0.66705,0.630901 0.73469,0.762201 0.42516,0.825315 -0.72464,0.147802 0.0861,2.219342 0.86849,2.219342 0.28344,0 0.39204,-0.134134 0.39204,-0.484088 0,-0.266231 -0.0892,-0.539242 -0.19832,-0.606641 -0.10908,-0.06744 -0.19771,-0.228852 -0.197,-0.358772 6.8e-4,-0.12986 0.36462,0.187712 0.80869,0.705815 0.84781,0.989124 1.11521,1.125529 1.29384,0.660035 z m -4.29835,-0.879559 c -0.007,-0.07018 -0.34496,-0.796224 -0.75059,-1.613504 -0.79054,-1.592758 -1.41937,-2.062233 -1.4159,-1.0571 0.003,0.726292 0.85105,2.544968 1.30624,2.799704 0.3506,0.19621 0.88534,0.115907 0.86025,-0.129123 z m -27.55288,-0.607846 c 0,-0.411388 -1.48584,-1.800311 -1.92593,-1.800311 -0.14742,0 -0.32455,0.147333 -0.39365,0.327433 -0.0861,0.224397 0.13188,0.567647 0.69265,1.090743 0.89543,0.83525 1.62692,1.007048 1.62693,0.382135 z m -5.39559,-1.797836 c 0.0597,-1.696078 -0.13378,-2.286755 -0.5972,-1.823339 -0.34749,0.347529 -0.46289,2.937264 -0.14773,3.316996 0.48306,0.582064 0.68624,0.174687 0.74494,-1.493657 z m -17.24121,-0.08674 c 0.94555,-0.488966 1.35736,-2.155437 0.74096,-2.998419 -0.27906,-0.381632 -0.33097,-0.386689 -2.39789,-0.233591 -0.55049,0.0407 -0.59944,-0.0091 -0.65514,-0.676862 -0.0895,-1.071789 0.61253,-1.559703 2.24413,-1.559703 1.60694,0 1.81279,-0.219813 1.48508,-1.585815 -0.13184,-0.549618 -0.1844,-1.219691 -0.11678,-1.48907 0.16563,-0.659911 0.97141,-1.167088 1.60256,-1.008672 0.46337,0.116358 0.49723,0.207902 0.49723,1.344871 0,1.432305 0.33647,1.945422 1.27567,1.945422 0.62435,0 1.4023,-0.416811 1.83375,-0.98247 1.11648,-1.46384 -0.35119,-4.135249 -2.62106,-4.770781 -1.43164,-0.400832 -3.74032,-0.172093 -5.12085,0.507345 -4.95951,2.440887 -6.08141,9.179674 -1.87708,11.274776 1.15451,0.575319 2.28379,0.659927 3.10944,0.232969 z m 72.21582,-0.09981 c 0,-0.21032 -0.33463,-0.942519 -0.74368,-1.627099 -0.40904,-0.684596 -0.97827,-1.962691 -1.26499,-2.840229 -0.31866,-0.975379 -0.63979,-1.619187 -0.82612,-1.656419 -1.05736,-0.21126 0.20142,4.053374 1.73021,5.861647 0.61041,0.722021 1.10458,0.839288 1.10458,0.2621 z m -2.41945,-0.252185 c 0.34037,-0.340388 0.3006,-1.480412 -0.0565,-1.617424 -0.34656,-0.133056 -0.69715,0.42778 -0.69715,1.115198 0,0.728844 0.31624,0.93959 0.75361,0.502226 z m -47.75452,-1.147369 c 0,-0.282122 -0.33577,-0.563273 -1.18424,-0.991568 -1.25918,-0.635638 -1.68894,-0.724255 -1.89503,-0.390804 -0.18827,0.304646 0.25835,0.752844 1.28138,1.285903 1.14738,0.597831 1.79789,0.632737 1.79789,0.09646 z m 50.96724,-0.03962 c 0,-0.537283 -0.73766,-1.351419 -1.22446,-1.351419 -0.5264,0 -0.45763,0.715722 0.1247,1.298073 0.60906,0.609055 1.09975,0.632858 1.09975,0.05332 z m -4.54319,-1.64891 c 0.46875,-1.336412 0.4789,-1.931613 0.0314,-1.848965 -0.40962,0.07566 -1.01365,1.228289 -1.17959,2.250921 -0.10883,0.670651 -0.0837,0.718986 0.34143,0.656783 0.34969,-0.05119 0.54167,-0.303148 0.80669,-1.058739 z m -15.15414,0.574935 c 0.18122,-0.472376 -0.29333,-0.667976 -1.62165,-0.668342 -1.56537,-4.41e-4 -2.08232,0.151597 -2.08232,0.612322 0,0.338237 0.16918,0.373506 1.79107,0.373506 1.4593,0 1.81363,-0.05879 1.9129,-0.317486 z m 19.49902,-1.146809 c 0,-0.566598 -1.39437,-1.907081 -1.98373,-1.907081 -0.64131,0 -0.46747,0.606351 0.43847,1.529443 0.9459,0.963818 1.54524,1.110295 1.54524,0.377642 z m -83.58109,-2.988872 c 0.7267,-0.303631 1.06242,-0.801543 0.75065,-1.113315 -0.24537,-0.245365 -2.6438091,0.56312 -2.6438091,0.891208 0,0.589704 0.7912197,0.682528 1.8931591,0.222107 z m -2.0784391,-0.51172 c 0.4095,-0.219159 0.5094297,-0.68511 0.18936,-0.882928 -0.10683,-0.06609 -0.5530397,-0.01215 -0.9915794,0.118774 -0.5558197,0.166532 -0.7973497,0.349533 -0.7973497,0.604135 0,0.275358 0.14964,0.365239 0.6079897,0.365239 0.3344,0 0.7805997,-0.09235 0.9915794,-0.205291 z m 98.2832861,-3.4721 c 0.19567,-0.509834 0.12951,-0.533044 -2.85673,-1.003355 -0.76993,-0.121218 -0.84284,-0.09615 -0.84284,0.290843 0,0.232967 0.0219,0.424938 0.0496,0.426577 0.0276,0.0015 0.40653,0.131554 0.84285,0.288758 1.09754,0.395408 2.65492,0.393832 2.80714,-0.0031 z m -3.18482,-1.974813 c 1.3544,-0.467468 2.84663,-0.740905 5.48431,-1.004936 0.98578,-0.09873 1.14033,-0.169995 1.14033,-0.526255 0,-0.401608 -0.06,-0.408731 -2.35393,-0.279086 -3.43913,0.194352 -6.37197,1.083362 -6.37197,1.931476 0,0.497319 0.37132,0.4759 2.10126,-0.121218 z m 5.63306,0.111046 c 0,-0.489784 -0.0807,-0.532057 -1.33863,-0.70176 -0.96226,-0.129724 -1.04117,-0.109667 -1.04117,0.264957 0,0.538088 0.5092,0.808333 1.53696,0.815699 0.70416,0.0045 0.84284,-0.05726 0.84284,-0.378896 z m -5.6516,-2.413321 c 0.99857,-1.356462 1.15598,-2.026961 0.45206,-1.925568 -0.5366,0.07731 -1.93985,2.012591 -1.93985,2.675359 0,0.797622 0.55427,0.51828 1.48777,-0.749791 z m -91.568327,0.212033 c 0.0393,-0.206492 -0.39764,-0.526074 -1.34754,-0.985599 -1.1571494,-0.55981 -1.4363694,-0.630383 -1.5792394,-0.399222 -0.3331397,0.539016 0.25164,1.081903 1.7819394,1.654305 0.50355,0.18834 1.08369,0.0518 1.14484,-0.269484 z m 1.43327,0.01944 c 0,-0.211912 -0.18108,-0.692205 -0.4024,-1.067305 -0.34827,-0.590286 -0.36161,-0.697679 -0.0992,-0.798388 0.22153,-0.08507 0.30324,-0.41192 0.30324,-1.213327 0,-0.94211 -0.0527,-1.096957 -0.37351,-1.096957 -0.43229,0 -0.64911,0.766576 -0.47149,1.666975 l 0.11366,0.576249 -0.70018,-0.764023 c -0.61708,-0.673352 -0.66548,-0.798745 -0.4077,-1.056518 0.20981,-0.209818 0.25678,-0.515759 0.16618,-1.082359 -0.16029,-1.002414 -0.24146,-1.125164 -0.74401,-1.125164 -0.37922,0 -0.40022,0.07731 -0.27568,1.016161 l 0.13479,1.016162 -0.8424197,-0.619537 C 8.9545936,11.625779 8.0472942,11.428143 8.0472942,11.867329 c 0,0.130335 0.24542,0.494159 0.5453697,0.808409 l 0.5453697,0.571369 -0.5453697,-0.135798 c -0.4922797,-0.122584 -0.5453697,-0.08446 -0.5453697,0.391612 0,0.41654 0.14774,0.589127 0.7028397,0.821062 0.7641194,0.319278 1.0820094,0.240927 1.0820094,-0.266686 0,-0.448073 1.4261597,0.959533 2.2126397,2.183842 0.63493,0.988409 1.35705,1.284644 1.35705,0.556711 z m 94.040227,-0.556711 c 1.01594,-0.813072 1.26791,-1.20236 0.97071,-1.499582 -0.48009,-0.480062 -2.78026,1.277839 -2.52895,1.932724 0.1833,0.477692 0.54625,0.376803 1.55824,-0.433142 z M 19.427593,14.021444 c -0.12688,-1.521378 -0.11745,-1.571535 0.276,-1.468653 0.5007,0.130937 1.0982,-0.677426 1.0017,-1.355216 -0.0901,-0.632905 -0.74863,-0.725701 -0.92177,-0.129875 -0.10399,0.357846 -0.15728,0.237511 -0.23384,-0.528123 -0.0705,-0.7051175 -0.1851,-0.9915695 -0.39663,-0.9915695 -0.47396,0 -0.82083,1.7518255 -0.74608,3.7680015 0.0726,1.957436 0.1806,2.280633 0.76242,2.280633 0.36554,0 0.38147,-0.09722 0.25821,-1.575167 z m 1.03642,0.828445 c 0.3262,-0.21582 0.87051,-1.354775 0.87051,-1.821532 0,-0.775918 -0.7593,-0.48699 -1.22177,0.464887 -0.52771,1.086202 -0.33939,1.813572 0.35126,1.356645 z m -2.34066,-0.889857 c 0.0918,-0.47344 -1.01889,-1.629911 -1.41827,-1.476644 -0.48614,0.186547 -0.40129,0.613536 0.26332,1.324987 0.60723,0.650038 1.04706,0.707791 1.15495,0.151598 z m 58.43788,-3.321326 c -0.003,-2.1437565 -0.0796,-3.0269905 -0.30012,-3.4705215 -0.44256,-0.890085 -0.89678,-0.782509 -0.83738,0.198306 0.0266,0.436301 0.1036,2.025214 0.17157,3.5309175 0.11953,2.649884 0.13706,2.735722 0.54691,2.677271 0.41034,-0.05848 0.42327,-0.149311 0.41909,-2.935972 z m 15.53443,2.263681 c 0.75119,-0.91132 1.66264,-2.785137 2.19645,-4.5156195 0.53724,-1.741588 0.54458,-2.309327 0.0295,-2.309327 -0.3036,0 -0.47598,0.27315 -0.78212,1.239469 l -0.3927,1.239484 -0.0109,-0.956541 c -0.008,-0.782981 -0.0711,-0.944905 -0.34181,-0.892424 -0.41984,0.08142 -0.73853,1.017118 -0.57218,1.679931 0.096,0.382378 0.22342,0.482979 0.51517,0.406697 0.2132,-0.05574 0.38762,-0.06258 0.38762,-0.01516 0,0.210744 -1.29647,2.6323865 -1.81062,3.3820405 -0.9523,1.388451 -0.27883,2.027537 0.78133,0.74142 z m 2.12625,0.09676 c 1.1217,-0.419681 1.55228,-0.881441 1.08893,-1.167802 -0.57443,-0.355037 -2.78083,0.590949 -2.78083,1.192258 0,0.496848 0.31058,0.492367 1.6919,-0.02443 z m -40.84718,-1.189509 c 0.49609,-0.773943 1.61103,-2.0928095 2.47765,-2.9308075 0.86662,-0.837999 1.57568,-1.632646 1.57568,-1.765876 0,-0.133215 -0.22285,-0.242249 -0.4952,-0.242249 -1.04969,0 -5.05766,4.4706725 -5.05766,5.6415595 0,0.460315 0.14943,0.704554 0.43101,0.704554 0.0916,0 0.57245,-0.633223 1.06854,-1.407181 z m 2.09905,0.79331 c 1.23008,-0.620418 1.84645,-1.567602 1.02011,-1.567602 -0.58991,0 -2.83233,1.268815 -2.83311,1.603054 -0.002,0.679325 0.41186,0.671245 1.813,-0.03536 z m 19.60247,-0.228975 c -10e-4,-0.245409 -0.22009,-0.914738 -0.48667,-1.487368 -0.35326,-0.758814 -0.59477,-1.0411635 -0.89048,-1.0411635 -1.03061,0 0.18217,2.9262195 1.23035,2.9687205 0.0818,0.003 0.14785,-0.194765 0.14681,-0.440188 z m 3.34806,-0.441785 c 0.89153,-0.967189 1.07395,-1.690109 0.42649,-1.690109 -0.41998,0 -1.98777,1.812828 -1.98777,2.298435 0,0.556803 0.76039,0.260522 1.56128,-0.608326 z m -60.30166,-0.341832 c 0.0641,-0.536858 -0.45058,-1.217535 -0.82705,-1.093707 -0.37408,0.123041 -0.37856,0.942992 -0.008,1.353136 0.44096,0.487263 0.75698,0.388998 0.83444,-0.259429 z m 73.01914,-1.149955 c 0,-1.6129735 -0.0356,-1.7848475 -0.37184,-1.7848475 -0.25782,0 -0.40986,0.190041 -0.49579,0.619734 -0.29176,1.4588875 -0.006,2.9499475 0.56525,2.9499475 0.24856,0 0.30236,-0.317653 0.30236,-1.784834 z M 52.031963,9.7958625 c -0.0537,-1.525359 -0.0878,-1.640392 -0.50381,-1.699481 -0.4226,-0.06 -0.44608,0.003 -0.44351,1.189903 0.003,1.6410765 0.15018,2.1456855 0.62339,2.1456855 0.35031,0 0.37678,-0.133824 0.32394,-1.6361075 z m 5.07187,-0.163128 c 0.51341,-0.403855 0.72106,-1.175504 0.31634,-1.175504 -0.30089,0 -1.72881,0.753239 -1.87436,0.988743 -0.40658,0.6579065 0.77848,0.7999475 1.55804,0.186762 z m 38.30826,0.01064 c 0.71607,-0.442567 1.002848,-0.949957 0.70515,-1.247665 -0.46533,-0.465315 -2.2511,0.884404 -1.90694,1.441282 0.18697,0.3024915 0.47383,0.2562825 1.20179,-0.193614 z m -17.72003,-0.144749 c 0.50959,-0.598392 0.84139,-1.631535 0.60114,-1.871779 -0.33814,-0.338146 -0.82809,-0.02804 -1.14164,0.722312 -0.53369,1.277261 -0.1903,2.0075925 0.5405,1.149467 z m -2.41555,-0.456062 c 0,-0.486184 -0.53539,-1.576685 -0.77408,-1.576685 -0.093,0 -0.27356,0.126072 -0.40145,0.28015 -0.34979,0.421473 0.22869,1.703005 0.76875,1.703005 0.27784,0 0.40678,-0.128809 0.40678,-0.40647 z m -20.64842,-1.267871 c 0.33016,-1.31121 0.28929,-1.697019 -0.1797,-1.697019 -0.48321,0 -0.78835,0.695851 -0.78835,1.797743 0,0.631735 0.071,0.780353 0.37308,0.780353 0.27598,0 0.43082,-0.229359 0.59495,-0.881077 z"
       id="path24" /><text
       xml:space="preserve"
       style="font-weight:500;font-size:77.5865px;font-family:Poppins;-inkscape-font-specification:'Poppins weight=750';fill:#f9f9f9;fill-opacity:1;stroke-width:6.46553"
       x="37.274273"
       y="105.64943"
       id="text24"><tspan
         sodipodi:role="line"
         id="tspan24"
         x="37.274273"
         y="105.64943"
         style="fill:#f9f9f9;fill-opacity:1;stroke-width:6.46553">TA</tspan></text></g></svg>
