<?xml version="1.0" encoding="UTF-8" standalone="no"?>
<!-- Created with Inkscape (http://www.inkscape.org/) -->

<svg
   width="360"
   height="120"
   viewBox="0 0 95.249998 31.75"
   version="1.1"
   id="svg1"
   xml:space="preserve"
   inkscape:version="1.3 (0e150ed6c4, 2023-07-21)"
   sodipodi:docname="tsuaqua-logo.svg"
   inkscape:export-filename="tsuaqua-titlelogo.svg"
   inkscape:export-xdpi="96"
   inkscape:export-ydpi="96"
   xmlns:inkscape="http://www.inkscape.org/namespaces/inkscape"
   xmlns:sodipodi="http://sodipodi.sourceforge.net/DTD/sodipodi-0.dtd"
   xmlns="http://www.w3.org/2000/svg"
   xmlns:svg="http://www.w3.org/2000/svg"><sodipodi:namedview
     id="namedview1"
     pagecolor="#ffffff"
     bordercolor="#000000"
     borderopacity="0.25"
     inkscape:showpageshadow="2"
     inkscape:pageopacity="0.0"
     inkscape:pagecheckerboard="0"
     inkscape:deskcolor="#d1d1d1"
     inkscape:document-units="mm"
     showgrid="true"
     inkscape:zoom="1.9893132"
     inkscape:cx="123.66077"
     inkscape:cy="84.7026"
     inkscape:window-width="1649"
     inkscape:window-height="1266"
     inkscape:window-x="2877"
     inkscape:window-y="342"
     inkscape:window-maximized="0"
     inkscape:current-layer="layer1"><inkscape:grid
       id="grid24"
       units="px"
       originx="0"
       originy="0"
       spacingx="47.625"
       spacingy="15.875"
       empcolor="#0099e5"
       empopacity="0.30196078"
       color="#0099e5"
       opacity="0.14901961"
       empspacing="5"
       dotted="false"
       gridanglex="30"
       gridanglez="30"
       visible="true" /></sodipodi:namedview><defs
     id="defs1" /><g
     inkscape:label="Layer 1"
     inkscape:groupmode="layer"
     id="layer1"><path
       style="fill:#008000;stroke-width:0.0521517"
       d="M 4.775059,30.593513 C 4.2210058,30.031495 3.9855847,29.615729 3.9466327,29.13047 3.8998332,28.547448 4.108402,28.151332 4.8775147,27.36253 5.3603052,26.867381 5.4628012,26.623877 5.4587268,25.981712 5.4553314,25.447536 5.3856676,24.918748 5.2611088,24.481811 5.199669,24.266289 5.15602,24.201856 5.0541296,24.176284 c -0.2164043,-0.05431 -0.4047793,0.02757 -0.6516242,0.283169 -0.2709765,0.28061 -0.3365904,0.462459 -0.4170992,1.155985 -0.035236,0.303518 -0.092565,0.545953 -0.1479951,0.625828 -0.2452076,0.353335 -1.1724704,0.587652 -2.2253368,0.562342 -0.86591112,-0.02081 -0.87432645,-0.04667 -0.2296037,-0.705323 0.2739849,-0.279907 0.6104932,-0.644466 0.7477973,-0.810133 0.3356604,-0.404992 0.4472616,-0.454991 1.0155897,-0.454991 0.2577093,0 0.5306455,-0.0236 0.606525,-0.05245 0.209306,-0.07958 0.7390277,-0.610266 0.9134405,-0.915111 0.1472406,-0.257349 0.1547911,-0.299986 0.1530223,-0.864106 -0.00104,-0.326368 -0.022461,-0.82399 -0.047638,-1.105822 -0.052516,-0.587851 -0.1234315,-0.713149 -0.4036237,-0.713149 -0.1529001,0 -0.230947,0.05742 -0.5902892,0.434257 -0.2277505,0.238839 -0.5324593,0.498676 -0.6771306,0.577417 -0.2401194,0.13069 -0.2800006,0.137665 -0.4577057,0.08007 -0.4177381,-0.13541 -1.3652968,-0.665173 -1.5172483,-0.848264 -0.056576,-0.06817 -0.021483,-0.11537 0.2369441,-0.318709 0.5110689,-0.402117 1.0737927,-0.666104 1.4821816,-0.695325 l 0.3511987,-0.02513 0.3016403,0.319616 c 0.293018,0.310482 0.309271,0.319618 0.5686114,0.319618 0.3814281,0 0.7155405,-0.131193 1.0112824,-0.397092 0.3048451,-0.274083 0.4576522,-0.565768 0.5040349,-0.962141 0.045227,-0.386485 -0.044498,-0.488723 -0.3906106,-0.445081 -0.7308796,0.09215 -0.8100057,0.09135 -0.99561,-0.01023 -0.2133971,-0.116762 -0.4156228,-0.43952 -0.4152129,-0.662687 1.525e-4,-0.08606 0.043761,-0.252177 0.096894,-0.369165 0.2472357,-0.544359 0.8787333,-0.648485 1.1110785,-0.183203 0.066771,0.133714 0.075173,0.202932 0.033974,0.279914 -0.046722,0.0873 -0.08643,0.09661 -0.2712397,0.06355 -0.1190778,-0.02129 -0.3221127,-0.04169 -0.4511889,-0.04529 l -0.234684,-0.0065 -0.016226,0.225501 c -0.019086,0.265271 0.041655,0.354896 0.329137,0.48567 0.4208829,0.191455 0.8660877,0.08767 1.0926682,-0.254713 C 5.8443734,18.178983 5.610091,16.617881 4.9642764,15.37422 4.7177039,14.89939 4.2982349,14.429682 4.0702158,14.373079 3.6978707,14.280652 3.4777298,14.523898 3.400354,15.113255 3.3250499,15.686838 3.2742614,15.872895 3.1376743,16.07558 2.965826,16.330585 2.7176456,16.477884 2.406045,16.509812 c -0.1491412,0.0153 -0.5218702,0.0515 -0.8282865,0.08048 -0.3064161,0.02896 -0.58803683,0.05908 -0.62582371,0.06691 -0.0996303,0.02061 -0.0673044,-0.327478 0.0688492,-0.741366 0.2613687,-0.794526 0.6252757,-1.312213 0.9917896,-1.410906 0.1322402,-0.03559 0.3117393,-0.03367 0.5683198,0.0061 0.5077446,0.07878 0.7705299,0.0036 1.0973782,-0.313461 0.1957198,-0.18993 0.2675671,-0.310573 0.355119,-0.596299 0.1608926,-0.525078 0.1988928,-1.037207 0.089365,-1.204372 -0.1017422,-0.155301 -0.2391055,-0.166605 -0.6580016,-0.05416 -0.3674858,0.09864 -0.7470003,0.09915 -0.9362901,0.0013 C 2.1626966,12.154891 2.0004387,11.464644 2.2437593,11.1329 c 0.3454274,-0.470959 1.2209942,-0.427985 1.2209942,0.05993 0,0.243616 -0.1166163,0.328895 -0.3301307,0.241416 -0.090922,-0.03728 -0.2518225,-0.09308 -0.3575569,-0.124048 -0.3991977,-0.116936 -0.6005642,0.156739 -0.4296406,0.583916 0.1170193,0.292462 0.312086,0.391727 0.7005639,0.356503 0.5227151,-0.0474 0.9258391,-0.347814 1.1674581,-0.870007 0.096206,-0.207926 0.1094769,-0.33105 0.1070929,-0.993544 C 4.3200641,9.7034041 4.3026998,9.5631952 4.141531,8.9267422 3.948042,8.1626671 3.9153713,7.6476487 4.0067943,6.8027678 4.059888,6.3121002 4.0195969,6.2148407 3.7632377,6.2148407 c -0.1268072,0 -0.2135148,0.061221 -0.4379265,0.3092027 C 3.0113221,6.8710108 2.7937105,6.9710705 2.4398334,6.9311808 2.2182386,6.9062149 1.7727794,6.6596268 1.4985107,6.4101226 L 1.3836619,6.305645 1.51506,6.1333757 C 1.6762193,5.9220835 2.0374724,5.6364726 1.9912685,5.7568766 c -0.035076,0.091408 0.1071513,0.248873 0.225945,0.2501511 0.061313,7.991e-4 0.060603,0.00955 -0.00411,0.051354 C 2.1700795,6.0861837 2.0732127,6.1092967 1.997845,6.1097357 1.8565611,6.1105345 1.7140832,6.2289692 1.7616895,6.3060002 1.802422,6.3719029 3.3754183,6.352461 3.3976461,6.2857878 3.4207504,6.2164749 3.3147593,6.1278911 3.1779165,6.1021542 3.0997967,6.0874542 3.0776241,6.0483075 3.0895867,5.9461787 3.1164581,5.7167553 2.7116032,5.4752643 2.6434205,5.6800413 2.6315283,5.715753 2.6923166,5.8155007 2.7785048,5.9016874 L 2.9352117,6.0583938 H 2.6801001 c -0.1820631,0 -0.2482706,-0.018655 -0.2312202,-0.065187 C 2.4848948,5.8949406 2.4112552,5.810132 2.2201511,5.7297775 L 2.0480289,5.6574041 2.2078571,5.5912023 c 0.096684,-0.04005 0.3009684,-0.058228 0.5170791,-0.046018 0.314649,0.017775 0.3975976,0.046473 0.6955884,0.2406242 C 3.8037948,6.035517 4.0040864,6.0632114 4.2167796,5.8959073 4.3250908,5.8107113 4.3534266,5.7483682 4.3411549,5.622268 4.3281207,5.4883504 4.2774813,5.4304773 4.0597577,5.3006781 3.9137303,5.2136247 3.5629997,5.0626823 3.2803564,4.9652591 2.662884,4.752417 2.4439494,4.5743955 2.2363527,4.1163475 2.1130575,3.8443062 2.0878769,3.7172832 2.085537,3.35554 2.0822614,2.8467413 2.1539885,2.7437256 2.4738671,2.7979357 2.7907019,2.8516345 3.3854836,3.1750259 3.604593,3.4127341 3.7840741,3.6074489 3.8299867,3.7114512 3.9527628,4.2014237 4.0305467,4.5118448 4.1396582,4.8549533 4.1952325,4.9638889 4.4010957,5.3674153 4.7852556,5.5104484 4.9574306,5.2476743 5.0725482,5.0719857 5.0048907,4.8430136 4.6602594,4.2419724 4.2805084,3.5796786 4.3029937,3.3501274 4.807989,2.733847 5.0452929,2.4442495 5.2124663,2.4359768 5.4462682,2.70225 5.7709263,3.0720143 5.9394016,3.6768383 5.7945006,3.9523989 5.751035,4.0350543 5.5962899,4.2191435 5.4506215,4.3614816 5.224988,4.5819612 5.1857699,4.6493534 5.1857699,4.8166096 c 0,0.1531553 0.029393,0.2155903 0.1336659,0.2839092 0.1269458,0.083178 0.1538225,0.081273 0.5345578,-0.037909 0.5420934,-0.1696969 1.1223046,-0.1632976 1.9975103,0.02205 0.5213653,0.1103977 0.799629,0.1393062 1.3409561,0.1393062 0.826207,0 1.143112,-0.094475 1.529631,-0.4560188 0.339589,-0.3176472 0.461155,-0.5860176 0.461155,-1.018049 0,-0.3294073 -0.0081,-0.3520284 -0.169493,-0.4732673 -0.208826,-0.1568664 -0.447033,-0.2116758 -0.62534,-0.1438842 -0.220181,0.083714 -0.229211,0.2390184 -0.037,0.6363452 0.19475,0.4025675 0.166636,0.5161408 -0.127764,0.5161408 -0.3550596,0 -0.5428033,-0.3312367 -0.4547859,-0.8023749 0.055799,-0.2987044 0.1588993,-0.419268 0.4553379,-0.5324778 0.432204,-0.1650592 0.843598,-0.036909 1.102455,0.343436 0.144496,0.2123068 0.147153,0.3904921 0.01303,0.8744607 -0.05736,0.207018 -0.104303,0.4317239 -0.104303,0.4993517 0,0.2893818 0.318172,0.3646393 0.902003,0.2133574 0.542331,-0.1405325 0.934781,-0.3779571 1.158595,-0.7009171 0.232022,-0.3348079 0.251628,-0.4922015 0.12394,-0.9949605 -0.06722,-0.2646675 -0.0997,-0.5045447 -0.07932,-0.585754 0.06367,-0.2536905 0.343519,-0.5010694 0.835978,-0.7389853 0.493551,-0.2384472 1.255852,-0.488139 1.313689,-0.4303018 0.04342,0.043417 -0.128357,1.8067946 -0.186609,1.9156383 -0.02455,0.045861 -0.160181,0.1914711 -0.301411,0.3235751 -0.211892,0.198202 -0.310595,0.2503349 -0.564607,0.2982218 -0.800378,0.1508863 -0.877045,0.1748738 -1.021863,0.3196925 -0.113058,0.1130579 -0.14647,0.1954177 -0.14647,0.3610361 0,0.1851798 0.03159,0.2452579 0.230633,0.4387143 0.283241,0.2752771 0.791632,0.5459323 1.412154,0.7517878 0.713845,0.2368213 1.035942,0.2910834 1.747091,0.294323 0.597335,0.0028 0.673725,-0.00807 0.91266,-0.1290602 0.360494,-0.1825352 0.509616,-0.4679545 0.483186,-0.9248201 -0.02398,-0.4145792 -0.184484,-0.6090422 -0.502675,-0.6090422 -0.380997,0 -0.430112,0.1337218 -0.263541,0.7175304 0.08369,0.2933285 0.02638,0.3719694 -0.235983,0.3237511 -0.261935,-0.048139 -0.393647,-0.2171602 -0.393647,-0.5051479 0,-0.2235155 0.02303,-0.2746938 0.205857,-0.4575247 0.628027,-0.6280283 1.622032,-0.1890145 1.410749,0.6230711 -0.11855,0.4556593 -0.122782,0.6231311 -0.01865,0.7385339 0.08202,0.090917 0.139059,0.1031834 0.369626,0.079516 0.718167,-0.073732 1.31406,-0.731068 1.316856,-1.4526449 0.0016,-0.3879679 -0.01746,-0.4270825 -0.311655,-0.6430483 -0.357327,-0.2623027 -0.433989,-0.476403 -0.336838,-0.9407344 0.07756,-0.370703 0.228758,-0.7012007 0.527754,-1.1536125 0.269266,-0.4074289 0.289359,-0.4158135 0.517562,-0.2159657 0.228489,0.2000994 0.767153,0.9980643 0.85651,1.2688194 0.0549,0.1663494 0.04656,0.2162694 -0.07907,0.4730476 -0.08152,0.166617 -0.325428,0.4814521 -0.581285,0.7503138 -0.516925,0.5431999 -0.58315,0.7182695 -0.366672,0.9693154 l 0.131535,0.1525363 0.747354,-0.00495 c 0.79981,-0.00531 1.279608,-0.087796 1.670338,-0.2871329 0.315862,-0.1611405 0.74871,-0.5926285 0.900935,-0.8981044 0.122562,-0.2459529 0.129899,-0.3007064 0.09906,-0.7394166 -0.04124,-0.5867607 7.99e-4,-0.6818273 0.48733,-1.1020268 0.194562,-0.1680351 0.563995,-0.5010094 0.820964,-0.7399479 0.42589,-0.3960086 0.473175,-0.4262873 0.534558,-0.3423377 0.08082,0.1105214 0.08213,0.2064188 0.01535,1.1151967 -0.08666,1.1792415 -0.234616,1.6541146 -0.553086,1.7751976 -0.0671,0.025526 -0.337264,0.083735 -0.600348,0.1293799 -0.62681,0.1087557 -0.945133,0.2715459 -1.143925,0.585007 -0.190786,0.3008381 -0.20401,0.5521717 -0.03487,0.6629928 0.161379,0.1057399 0.781623,0.1878 1.445215,0.1912035 0.903659,0.00464 1.07203,-0.072845 1.825217,-0.8399478 0.605201,-0.6163804 0.883609,-0.7870598 1.346466,-0.8254434 0.612841,-0.050819 1.125694,0.1877122 1.808895,0.8413298 0.434367,0.4155579 0.440057,0.4027713 -0.312697,0.7028225 C 29.071374,5.5360429 28.634289,5.714388 28.386908,5.8180268 27.622724,6.1381826 27.421341,6.1254679 26.864389,5.7219093 26.465869,5.4331496 26.308666,5.4107242 25.842011,5.5760549 25.488748,5.7012085 25.350084,5.7190122 24.535282,5.7438225 l -0.911526,0.027762 -0.05146,0.1466842 c -0.04149,0.1182749 -0.02866,0.1896656 0.06628,0.3686217 0.0992,0.1869773 0.193381,0.2624545 0.597927,0.4791393 0.456557,0.2445429 0.48783,0.2725088 0.635544,0.5682619 0.13954,0.2793913 0.155471,0.3619269 0.156459,0.8106036 8.38e-4,0.3864815 -0.01926,0.5306172 -0.08886,0.6368684 -0.08346,0.1274145 -0.104005,0.1334502 -0.284591,0.08359 C 24.1066,8.7139201 23.579157,8.361728 23.409508,8.0336669 23.306654,7.8347659 23.31573,7.5002176 23.437857,6.9888942 23.574369,6.4173328 23.530727,6.2526932 23.135591,5.8486156 22.880431,5.5876791 22.804197,5.5403915 22.587446,5.5086108 22.070377,5.4327861 21.953373,5.6268258 22.135695,6.2577981 l 0.116955,0.4047567 -0.105822,0.2064148 c -0.21643,0.4221689 -0.553719,0.5846396 -1.010397,0.4866969 -0.576975,-0.1237394 -0.854477,-0.7927999 -0.441149,-1.0636229 0.157126,-0.1029518 0.392058,-0.08357 0.468581,0.038667 0.04194,0.066993 0.03355,0.1508506 -0.03313,0.3307335 -0.136968,0.3695565 0.01344,0.5429444 0.406953,0.4691209 0.248112,-0.046549 0.388864,-0.2455615 0.388864,-0.5498189 0,-0.3411113 -0.207541,-0.6193723 -0.608987,-0.8164917 -0.270618,-0.1328827 -0.357588,-0.148917 -0.799112,-0.1473231 l -0.495442,0.0016 -0.834433,0.3942788 c -0.458937,0.2168486 -0.928304,0.4245337 -1.043039,0.4615153 -0.394119,0.1270309 -0.495443,0.2007625 -0.495443,0.3605088 0,0.081446 0.04678,0.2075573 0.103961,0.2802503 0.09982,0.126903 0.130457,0.1329628 0.769243,0.1521606 0.786074,0.023608 0.947624,0.08661 1.349283,0.5260873 0.402396,0.4402883 0.802327,1.2940531 0.802327,1.7127947 V 9.671727 L 20.009965,9.642087 C 19.626188,9.6249869 19.223743,9.5758299 19.058192,9.52583 18.714302,9.4219676 18.348307,9.2183209 18.281633,9.0937387 18.255041,9.0440504 18.195975,8.7350433 18.150376,8.4070501 18.053467,7.7099839 17.965565,7.5421325 17.506181,7.176946 17.064812,6.826084 16.805089,6.6848763 16.247547,6.4926542 15.753079,6.3221824 15.398198,6.276976 15.256883,6.3664661 c -0.0459,0.029081 -0.08566,0.195993 -0.108491,0.4555315 -0.04142,0.4707067 -0.09233,0.5889057 -0.332603,0.7721679 -0.254505,0.1941197 -0.445713,0.2154865 -0.744799,0.083235 -0.493712,-0.2183186 -0.701001,-0.5533861 -0.577124,-0.932885 0.08183,-0.2506945 0.371222,-0.4085914 0.57701,-0.3148272 0.209557,0.095482 0.22089,0.2307377 0.0369,0.4402962 -0.195443,0.2225967 -0.21324,0.449176 -0.04456,0.5673191 0.217684,0.1524723 0.645576,0.054174 0.76913,-0.1766832 C 14.9149,7.1063583 14.896383,6.591232 14.801054,6.3903458 14.626625,6.0227665 13.908427,5.5605602 13.060721,5.2703355 12.563712,5.1001754 11.986288,5.1146636 10.974642,5.3226806 10.047556,5.5133048 9.9837551,5.5537856 9.9837551,5.9513801 c 0,0.3117392 0.2290509,0.7860771 0.5139009,1.0642261 0.113161,0.1105015 0.389297,0.3216578 0.613632,0.4692408 0.54002,0.3552519 0.658562,0.5733629 0.688924,1.267581 0.02446,0.5590305 -0.14592,1.460583 -0.286183,1.514409 C 11.38456,10.316523 10.680496,9.9208527 10.334959,9.6042316 9.9736388,9.27315 9.7751427,8.9341919 9.7751427,8.6482733 c 0,-0.1037665 0.062621,-0.3476144 0.1391633,-0.5418817 0.113967,-0.2892817 0.13929,-0.4381829 0.139889,-0.8225872 C 10.055712,6.3079019 9.6322682,5.7457958 8.6835206,5.4643032 8.358911,5.3679903 8.0406805,5.3558749 7.8942397,5.4342241 7.8027572,5.4831854 7.7933643,5.5489839 7.7933643,6.1408656 c 0,0.9807039 -0.069569,1.0646935 -0.8818958,1.0646935 -0.5833596,0 -0.61885,0.033395 -0.6815702,0.6413062 C 6.146194,8.6581562 6.0138223,8.7783883 5.1676126,8.8117349 4.8477357,8.8243575 4.5542175,8.8602568 4.5153504,8.891546 4.3863342,8.9954084 4.465687,9.4993019 4.6790454,9.9310022 4.9183667,10.415238 5.2588567,10.745528 5.683847,10.905714 6.1369097,11.076477 6.7343558,11.038757 7.2692444,10.805623 7.721,10.608718 7.9769598,10.614044 8.341945,10.827957 c 0.4169801,0.244367 1.1202827,1.154999 1.1202827,1.45054 0,0.05165 -0.1534087,0.128089 -0.4563298,0.227383 -0.39521,0.129543 -0.5366584,0.149576 -1.0560775,0.149576 -0.7748213,0 -0.9687431,-0.09216 -1.2627678,-0.600115 C 6.3876206,11.538037 6.1153491,11.2509 5.7521834,11.069423 5.2284377,10.807703 4.806521,10.868117 4.7233774,11.216731 c -0.4675953,1.960601 -0.451935,2.376894 0.132009,3.509235 0.5616932,1.089192 1.1831897,1.658352 1.8108474,1.658352 0.2459122,0 0.299995,-0.01889 0.3932175,-0.137412 C 7.202073,16.065589 7.2093572,15.656047 7.0721703,15.531891 6.928806,15.402152 6.7673657,15.426975 6.5337986,15.614671 L 6.3233873,15.783765 6.197869,15.637839 c -0.1653355,-0.192214 -0.1583722,-0.323883 0.026927,-0.509182 0.308719,-0.30872 0.8348779,-0.156994 1.0822808,0.312091 0.1544923,0.292921 0.1554654,0.56398 0.00283,0.79244 -0.1757426,0.263071 -0.4106482,0.359559 -0.8755764,0.359655 -0.5169576,1.12e-4 -0.5974967,0.05616 -0.5486553,0.381859 0.075863,0.505891 0.6437094,1.373329 1.1824081,1.806239 0.2222503,0.178605 0.5769343,0.257593 1.1738867,0.26142 0.3560766,0.0023 0.5778143,0.155488 0.7597103,0.524902 0.1697483,0.344741 0.3038816,0.979964 0.3190075,1.510734 l 0.011143,0.391138 -0.1474544,0.0169 C 8.8146175,21.528395 7.7465645,21.072104 7.3378565,20.697163 7.0091091,20.395578 6.918145,20.160705 6.8570802,19.455783 6.8101342,18.913836 6.7937377,18.851218 6.6707505,18.744204 6.5195137,18.612607 6.272409,18.589702 6.1817962,18.698886 6.1489213,18.73851 6.0864014,18.908648 6.0428699,19.07699 5.999337,19.245329 5.8571548,19.641217 5.7269087,19.956736 5.3245768,20.93138 5.2808624,21.078084 5.2808624,21.45362 c 0,0.444386 0.1173737,0.800845 0.3551793,1.078667 0.234258,0.273679 0.4214587,0.371034 0.7134376,0.371034 0.326971,0 0.5051451,-0.182779 0.5051451,-0.518198 0,-0.133769 -0.028161,-0.271382 -0.062582,-0.305804 -0.086645,-0.08665 -0.2774396,-0.07821 -0.4687562,0.02074 -0.3389242,0.175265 -0.5502052,-0.14845 -0.3024575,-0.463409 0.1542506,-0.196096 0.370419,-0.225217 0.653731,-0.08807 0.2890162,0.139913 0.440825,0.403974 0.440825,0.766787 0,0.347075 -0.1389642,0.585891 -0.4329126,0.743963 l -0.2415855,0.12991 -0.3537649,-0.0984 c -0.7410603,-0.206132 -0.90136,-0.171706 -0.90136,0.193556 0,0.415878 0.30716,0.836809 0.7906086,1.083444 0.2573957,0.131313 0.493556,0.119126 1.1442599,-0.05906 0.388319,-0.106336 0.4763426,-0.114492 0.655644,-0.06077 0.398144,0.119285 0.9040898,0.771302 1.0293105,1.326478 0.027194,0.120559 0.00794,0.154233 -0.1289706,0.225008 -0.3769154,0.194909 -1.2675225,0.141258 -1.6232028,-0.09778 -0.098652,-0.0663 -0.2845243,-0.30278 -0.4334705,-0.551484 -0.3411913,-0.569716 -0.7043257,-0.778915 -0.9410844,-0.542159 -0.077619,0.07762 -0.082876,0.156245 -0.044462,0.664939 0.058497,0.774625 0.044154,1.022127 -0.088376,1.525159 -0.146709,0.556849 -0.1169655,0.694146 0.2455989,1.133699 0.2766687,0.335419 0.2918784,0.368937 0.2941469,0.648289 0.00171,0.211994 -0.052126,0.448098 -0.1920702,0.842172 -0.1069548,0.301181 -0.2659682,0.758815 -0.3533635,1.016967 -0.2398044,0.708343 -0.22228,0.704819 -0.7652794,0.154014 z m 0.3297152,-1.575158 c 0.00743,-1.346981 -0.00757,-1.446014 -0.1864169,-1.230644 -0.055681,0.06705 -0.071576,0.330531 -0.071576,1.186459 0,1.171233 0.028174,1.404548 0.166341,1.377528 0.07485,-0.01466 0.085206,-0.165303 0.091652,-1.333343 z m -0.4762595,0.584943 c 0.1157531,-0.242737 0.1109389,-0.33722 -0.017185,-0.33722 -0.062574,0 -0.1468675,0.06855 -0.2084128,0.169492 -0.1404695,0.23039 -0.1345998,0.352028 0.016989,0.352028 0.086839,0 0.1453868,-0.05172 0.2086088,-0.1843 z m 0.9744708,0.084 c 0,-0.138367 -0.2482545,-0.421218 -0.3696999,-0.421218 -0.1138565,0 -0.1250908,0.06196 -0.040815,0.225077 0.1480024,0.286461 0.4105148,0.411892 0.4105149,0.196141 z M 4.501312,28.803032 c 0.2943638,-0.510045 0.3145726,-0.57999 0.1675741,-0.57999 -0.1939862,0 -0.5783079,0.587811 -0.5783079,0.884507 0,0.276404 0.1319037,0.178613 0.4107338,-0.304517 z m 1.3357319,-0.0044 C 5.8792861,28.665558 5.8068369,28.536186 5.5770876,28.334464 5.1829617,27.98842 5.0665747,28.20425 5.4281274,28.610704 5.7018964,28.91847 5.786651,28.957423 5.8370439,28.798649 Z M 2.6044097,26.501907 C 2.814445,26.3574 2.9403176,26.168805 2.8721968,26.100685 2.7668847,25.995373 2.103675,26.471449 2.1811235,26.596766 c 0.061246,0.0991 0.1800919,0.07247 0.4232862,-0.09486 z M 2.2078974,26.300222 c 0.2179922,-0.139674 0.6075647,-0.359942 0.865717,-0.489486 0.5432592,-0.272608 0.7363093,-0.413823 0.6831961,-0.499767 -0.062543,-0.101198 -0.1681123,-0.0714 -0.7092717,0.200164 -0.2857939,0.143417 -0.5317856,0.260761 -0.5466486,0.260761 -0.014864,0 -0.027024,-0.03363 -0.027024,-0.07472 0,-0.09655 -0.1629612,-0.147339 -0.3345527,-0.104273 -0.1004116,0.02521 -0.1348151,0.0674 -0.1348151,0.165385 0,0.121221 0.014337,0.129224 0.1825322,0.101934 0.1003923,-0.0163 0.1825321,-0.02161 0.1825321,-0.01179 0,0.0098 -0.099741,0.07651 -0.221646,0.14821 -0.290529,0.170891 -0.4777288,0.374378 -0.4384886,0.476634 0.017068,0.04448 0.047031,0.08088 0.066578,0.08088 0.019549,0 0.2138986,-0.11428 0.4318907,-0.25395 z m 1.0942376,0.168954 c 0.1501604,-0.105177 0.4233793,-0.528088 0.4233793,-0.655344 0,-0.174745 -0.1964488,-0.104453 -0.3564883,0.127555 -0.08409,0.121905 -0.2025593,0.266353 -0.2632654,0.320994 -0.2377856,0.214032 -0.068491,0.392314 0.1963744,0.206795 z m 4.7378353,-0.732254 c 0.033542,-0.10193 -0.2706373,-0.404195 -0.3688339,-0.366513 -0.116602,0.04475 -0.1086668,0.15047 0.023948,0.31906 0.1119634,0.142339 0.3049289,0.168886 0.3448881,0.04746 z m -0.5595141,-0.09877 c 0,-0.103862 -0.4212445,-0.596328 -0.5101178,-0.596364 -0.1069747,-3.6e-5 -0.133805,0.147195 -0.049963,0.274179 0.2172627,0.329052 0.5600806,0.526259 0.5600808,0.322185 z M 8.4090811,25.525429 C 8.4205777,25.4477 8.3585722,25.369777 8.1874354,25.246873 7.9254044,25.058697 7.8953569,25.017449 8.0578919,25.069035 c 0.1715882,0.05446 0.3613001,-0.01514 0.3613001,-0.132567 0,-0.08907 -0.035595,-0.103312 -0.2581686,-0.103312 -0.1771367,0 -0.272138,0.02497 -0.3026757,0.07953 -0.038892,0.0695 -0.07856,0.06455 -0.3142742,-0.03911 -0.1483715,-0.06525 -0.2703197,-0.133242 -0.2709961,-0.151081 -6.79e-4,-0.01785 0.1219803,-0.0666 0.2725692,-0.10835 0.2188255,-0.06067 0.277347,-0.100211 0.2914754,-0.196934 0.016769,-0.114796 0.00585,-0.119398 -0.2122338,-0.08951 -0.3317772,0.04547 -0.5158045,0.127174 -0.5459291,0.242373 -0.016035,0.06131 -0.080386,0.106979 -0.1644471,0.116713 -0.2597374,0.03008 -0.1505929,0.162871 0.2791085,0.339602 0.2294686,0.09438 0.5697607,0.276799 0.7562039,0.405384 0.361791,0.249512 0.4340195,0.264244 0.4592567,0.09365 z M 2.9758296,25.354677 c 0.21141,0 0.2803165,-0.01878 0.2803165,-0.07639 0,-0.129559 -0.205925,-0.197096 -0.5295932,-0.173683 -0.331421,0.02396 -0.4422512,0.08857 -0.3891874,0.226854 0.025844,0.06735 0.071982,0.08045 0.1959753,0.05566 0.089195,-0.01785 0.2883144,-0.03244 0.4424888,-0.03244 z m 0.1223549,-3.467156 c 0.153522,-0.09692 0.2101138,-0.167579 0.2101138,-0.262366 0,-0.07135 -0.015222,-0.129724 -0.03383,-0.129724 -0.018606,0 -0.1828856,0.07571 -0.3650638,0.168259 -0.2680505,0.136163 -0.3312324,0.192123 -0.3312324,0.293353 0,0.110912 0.017568,0.121582 0.1549497,0.09411 0.085223,-0.01706 0.2495009,-0.09068 0.3650639,-0.163629 z m -0.7095789,-0.08296 c 0.1683511,-0.132428 0.177749,-0.255189 0.020072,-0.262176 -0.3000492,-0.0133 0.1693294,-0.08906 0.5867099,-0.09471 0.4834411,-0.0065 0.6078519,-0.04871 0.5544259,-0.187936 -0.030726,-0.08008 -0.1033169,-0.08711 -0.6725369,-0.06515 -0.7076983,0.02728 -1.1436081,0.146937 -1.1775547,0.323209 -0.017164,0.08912 0.00783,0.09498 0.2864051,0.06717 0.2906695,-0.02904 0.2983766,-0.02685 0.1617911,0.04597 -0.1829898,0.09753 -0.196112,0.281719 -0.020072,0.281719 0.067841,0 0.185183,-0.04863 0.2607596,-0.108088 z m 0.033112,-0.770125 c 0,-0.107317 -0.1989262,-0.216979 -0.3935939,-0.216979 -0.166408,0 -0.1736525,0.170615 -0.010586,0.24926 0.1963452,0.0947 0.4041777,0.0781 0.4041777,-0.03228 z m 0.8865833,-0.01178 c 0,-0.197747 -0.5231288,-0.589493 -0.6362004,-0.476424 -0.084955,0.08496 -0.016421,0.199025 0.2243687,0.373452 0.2194052,0.15894 0.4118317,0.20705 0.4118317,0.102972 z m 5.6845647,-0.02525 c 0,-0.165591 -0.1615785,-0.376531 -0.6864747,-0.896187 -0.5221272,-0.516912 -1.0461492,-0.952618 -1.1457171,-0.952618 -0.1157895,0 -0.1030173,0.171047 0.022625,0.302987 0.1199911,0.126012 0.1259953,0.150619 0.058927,0.241538 -0.046213,0.06264 -0.074678,0.226648 -0.074678,0.430254 0,0.288056 0.01229,0.329021 0.098724,0.329021 0.124128,0 0.1620356,-0.09788 0.1620356,-0.418402 0,-0.139378 0.0176,-0.264013 0.039115,-0.276963 0.021515,-0.01295 0.2002004,0.126472 0.3970842,0.309834 0.2805192,0.261248 0.3341165,0.333378 0.2477217,0.333378 -0.092757,0 -0.1101347,0.03104 -0.1095363,0.195573 0.00108,0.296469 0.051398,0.43025 0.1618267,0.43025 0.083389,0 0.098617,-0.04135 0.1008419,-0.273795 l 0.00264,-0.273799 0.2711772,0.298537 c 0.2645204,0.291208 0.4537092,0.383107 0.4537092,0.220392 z m 0.1355999,-0.76206 C 9.1943691,20.128704 8.9471479,19.98303 8.7002522,19.98303 c -0.1901503,0 -0.2289061,0.01677 -0.2289061,0.09913 0,0.151245 0.5754158,0.28539 0.6571194,0.15319 z M 8.8075917,19.632381 C 8.8708411,19.46755 8.550198,19.325806 7.9843086,19.26844 7.687945,19.2384 7.6802759,19.24084 7.6974729,19.35906 c 0.015436,0.106111 0.068767,0.132339 0.4215921,0.207322 0.2221577,0.04721 0.4196829,0.101606 0.4389456,0.120867 0.067037,0.06703 0.2153128,0.03443 0.2495811,-0.05486 z M 1.9985658,16.345438 c 0.060459,-0.05019 0.124663,-0.16754 0.1426764,-0.26076 0.028561,-0.147799 0.018739,-0.169494 -0.076732,-0.169494 -0.1187754,0 -0.2686177,0.231289 -0.2686177,0.414628 0,0.130902 0.058408,0.135404 0.2026727,0.01561 z M 1.8314834,15.976462 c 0.1470713,-0.167085 0.4211655,-0.407632 0.6090974,-0.53456 0.348361,-0.235276 0.4379706,-0.342393 0.3554525,-0.424913 -0.082965,-0.08296 -0.2994671,0.01362 -0.6794043,0.303087 -0.2434656,0.185491 -0.3728881,0.256615 -0.3728881,0.204917 0,-0.05537 -0.053624,-0.07918 -0.1782667,-0.07918 -0.2492097,0 -0.3432532,0.04626 -0.3432532,0.168818 0,0.09418 0.02517,0.102672 0.2344666,0.07908 l 0.2344662,-0.02645 -0.1562384,0.21245 c -0.3447874,0.468838 -0.1009744,0.548357 0.296568,0.09673 z m 0.6744931,0.159567 c 0.095793,-0.06308 0.2808038,-0.467448 0.2808038,-0.613731 0,-0.235308 -0.1681684,-0.129305 -0.3549951,0.223766 -0.094855,0.17926 -0.158008,0.349312 -0.14034,0.3779 0.037653,0.06093 0.1322574,0.06624 0.2145313,0.01206 z M 2.4005301,15.020685 c 0.061102,-0.09887 -0.1391823,-0.200748 -0.3929593,-0.199896 -0.2784975,7.98e-4 -0.3960022,0.05996 -0.3512943,0.176471 0.024811,0.06466 0.1081958,0.08349 0.3695853,0.08349 0.1984173,0 0.3528473,-0.02477 0.3746683,-0.06007 z m 5.9665114,-2.537776 c 0,-0.1175 -0.2615356,-0.374821 -0.3809553,-0.374821 -0.1316975,0 -0.1093814,0.192377 0.039598,0.34136 0.1527407,0.152738 0.3413581,0.17123 0.3413581,0.03348 z M 7.725186,12.439701 C 7.772489,12.316428 7.135127,11.70242 7.049131,11.788419 c -0.081268,0.08127 0.077139,0.376918 0.312821,0.583849 0.1958924,0.171997 0.3146485,0.194043 0.363234,0.06743 z m 1.0958348,-0.158129 c 0.098291,-0.256143 -1.5377504,-1.071368 -1.8836824,-0.938621 -0.1868634,0.0717 -0.075795,0.183406 0.2940823,0.295748 0.4050637,0.123037 0.6703862,0.247311 1.1586291,0.542693 0.3525483,0.213293 0.3846989,0.220763 0.430971,0.10018 z M 8.719068,11.639294 c 0.1312848,-3.99e-4 0.169493,-0.02281 0.169493,-0.09922 0,-0.126009 -0.1971408,-0.178043 -0.5015766,-0.132388 -0.2487503,0.03731 -0.3074943,0.086 -0.2583237,0.214132 0.024339,0.06343 0.07644,0.07499 0.226267,0.05022 0.1070549,-0.01769 0.2709179,-0.03244 0.3641403,-0.03276 z M 7.8324843,11.16143 c 0.4010491,-0.158919 0.3593375,-0.33623 -0.057136,-0.242878 -0.3123835,0.07002 -0.5556493,0.18627 -0.5556493,0.265523 0,0.17439 0.1274352,0.169681 0.612786,-0.02266 z M 11.183248,9.4592927 c 0,-0.2944469 -0.135156,-0.7588622 -0.358642,-1.2323571 -0.203638,-0.4314363 -0.374129,-0.6406713 -0.472503,-0.5798741 -0.08996,0.055596 -0.06502,0.1691695 0.102217,0.4654939 0.180971,0.3206631 0.468168,1.0791339 0.468168,1.2364076 0,0.1503751 0.09435,0.3079805 0.184367,0.3079805 0.05365,0 0.07639,-0.05884 0.07639,-0.1976508 z M 10.755597,9.1740333 c 0.01411,-0.2700321 0.0054,-0.2993682 -0.0889,-0.2993682 -0.07816,0 -0.113172,0.045997 -0.138722,0.1821878 -0.04731,0.2522125 0.01001,0.4549722 0.122582,0.4335574 0.06977,-0.013262 0.09284,-0.082756 0.105043,-0.316377 z m 9.325215,0.2523043 c 0.03601,-0.093844 -0.04765,-0.2551324 -0.283872,-0.5472665 l -0.186201,-0.2302782 0.180058,0.042122 c 0.340968,0.079768 0.49297,0.064065 0.49297,-0.050935 0,-0.1219258 -0.25452,-0.2271345 -0.560634,-0.2317402 -0.145361,-0.002 -0.19557,0.018375 -0.19557,0.080119 0,0.055416 -0.08983,0.0024 -0.269936,-0.1596384 -0.48576,-0.436737 -0.877407,-0.6020278 -0.877407,-0.3702956 0,0.042858 0.134943,0.171079 0.299874,0.2849358 0.16493,0.113857 0.393748,0.2957971 0.508481,0.4043092 0.175418,0.16591 0.193206,0.200439 0.111802,0.2170364 -0.190564,0.038867 0.02263,0.5836289 0.228389,0.5836289 0.07454,0 0.103102,-0.035272 0.103102,-0.1273026 0,-0.070012 -0.02347,-0.1418068 -0.05215,-0.1595307 -0.02868,-0.017735 -0.05199,-0.060182 -0.05181,-0.094348 1.8e-4,-0.034153 0.09588,0.049364 0.212666,0.1856111 0.222951,0.2601137 0.29327,0.2959848 0.340245,0.1735716 z M 18.950459,9.1950366 C 18.94857,9.1765815 18.859742,8.9856499 18.753072,8.7707268 18.545181,8.3518734 18.379816,8.2284136 18.380729,8.4927375 c 6.8e-4,0.1909957 0.223803,0.6692601 0.343507,0.736249 0.0922,0.051598 0.232821,0.030479 0.226223,-0.033954 z M 11.704767,9.0351864 c 0,-0.1081845 -0.390737,-0.4734349 -0.506467,-0.4734349 -0.03877,0 -0.08535,0.038747 -0.103521,0.086107 -0.02264,0.059011 0.03468,0.1492766 0.18215,0.2868372 0.235473,0.2196488 0.427838,0.2648273 0.427838,0.1004907 z M 10.285868,8.5624026 c 0.0157,-0.4460244 -0.03518,-0.6013568 -0.157048,-0.4794908 -0.09138,0.091391 -0.121728,0.7724237 -0.03885,0.8722837 0.127033,0.1530675 0.180463,0.045938 0.195902,-0.3927929 z M 5.7518799,8.5395937 C 6.0005335,8.4110088 6.1088304,7.9727699 5.9467333,7.7510879 5.8733468,7.6507285 5.8596965,7.6493984 5.3161511,7.6896595 5.1713859,7.7003649 5.1585123,7.6872628 5.1438658,7.511662 5.1203339,7.22981 5.3049448,7.1015007 5.7340142,7.1015007 c 0.4225812,0 0.4767138,-0.057805 0.3905371,-0.4170278 C 6.0898787,6.5399378 6.0760566,6.3637259 6.0938374,6.2928864 6.1373929,6.1193469 6.349293,5.9859726 6.5152677,6.0276318 6.6371209,6.0582303 6.646028,6.0823047 6.646028,6.381298 c 0,0.3766587 0.088482,0.511595 0.3354665,0.511595 0.1641871,0 0.3687688,-0.1096108 0.4822282,-0.258364 C 7.7573293,6.2495774 7.3713699,5.5470665 6.7744523,5.3799381 6.3979697,5.2745297 5.7908464,5.3346798 5.4278018,5.5133564 4.1235798,6.1552459 3.8285491,7.9273717 4.9341806,8.4783291 5.2377846,8.629623 5.5347564,8.6518727 5.7518811,8.5395937 Z M 24.74276,8.5133494 c 0,-0.055309 -0.088,-0.2478583 -0.195569,-0.427885 -0.107566,-0.1800308 -0.257259,-0.5161369 -0.332658,-0.7469065 -0.0838,-0.2564987 -0.168249,-0.425804 -0.217249,-0.4355947 -0.27806,-0.055556 0.05297,1.0659319 0.455,1.54146 0.160523,0.1898734 0.290476,0.2207114 0.290476,0.068926 z m -0.636254,-0.066318 c 0.08951,-0.089513 0.07905,-0.3893096 -0.01485,-0.4253405 -0.09114,-0.034992 -0.18333,0.1124947 -0.18333,0.2932684 0,0.1916669 0.08316,0.2470875 0.198178,0.1320721 z M 11.548312,8.1452988 c 0,-0.074191 -0.0883,-0.1481263 -0.311424,-0.2607568 -0.331131,-0.1671563 -0.444148,-0.1904605 -0.498344,-0.1027719 -0.04951,0.080114 0.06794,0.1979782 0.336971,0.3381593 0.30173,0.1572137 0.472797,0.1663933 0.472797,0.025366 z M 24.95137,8.1348736 c 0,-0.1412915 -0.193985,-0.3553878 -0.322002,-0.3553878 -0.13843,0 -0.120347,0.1882156 0.0328,0.341359 0.160166,0.1601658 0.289206,0.1664253 0.289206,0.01402 z M 23.75663,7.7012559 c 0.12327,-0.3514412 0.125938,-0.507964 0.0083,-0.4862296 -0.107722,0.019893 -0.266565,0.3230079 -0.310203,0.5919336 -0.02862,0.1763637 -0.02202,0.1890745 0.08979,0.1727167 0.09196,-0.013462 0.142448,-0.07972 0.21214,-0.2784207 z M 19.771484,7.85245 c 0.04766,-0.1242228 -0.07714,-0.1756608 -0.426451,-0.1757567 -0.411654,-1.157e-4 -0.547597,0.039866 -0.547597,0.1610248 0,0.088947 0.04449,0.098222 0.471004,0.098222 0.383758,0 0.47694,-0.015459 0.503044,-0.08349 z m 5.127735,-0.3015812 c 0,-0.149001 -0.366683,-0.5015127 -0.52167,-0.5015127 -0.168647,0 -0.122929,0.1594547 0.115311,0.402204 0.248748,0.2534587 0.406359,0.2919783 0.406359,0.099309 z M 2.9195687,6.7648754 C 3.1106707,6.6850282 3.1989564,6.5540906 3.1169706,6.4721022 3.0524445,6.407578 2.4217165,6.6201885 2.4217165,6.7064669 c 0,0.1550769 0.2080701,0.1794875 0.4978522,0.058409 z M 2.3729929,6.6303067 C 2.4806802,6.5726736 2.5069596,6.4501402 2.4227888,6.398119 2.3946955,6.3807421 2.2773534,6.3949241 2.1620293,6.4293565 2.0158641,6.4731494 1.9523485,6.5212749 1.9523485,6.5882282 c 0,0.072413 0.03935,0.096049 0.1598842,0.096049 0.087937,0 0.2052788,-0.024287 0.26076,-0.053986 z M 28.218946,5.7172346 c 0.05145,-0.1340733 0.03406,-0.140177 -0.751246,-0.2638564 -0.202473,-0.031877 -0.221646,-0.025285 -0.221646,0.076484 0,0.061264 0.0058,0.1117477 0.01304,0.1121791 0.0072,3.995e-4 0.10691,0.034593 0.221647,0.075936 0.288626,0.1039824 0.698175,0.103567 0.738204,-7.989e-4 z M 27.381421,5.1979101 c 0.356171,-0.1229325 0.748587,-0.1948386 1.44223,-0.264272 0.259233,-0.025964 0.299875,-0.044704 0.299875,-0.1383914 0,-0.1056121 -0.01579,-0.1074856 -0.619022,-0.073392 -0.904401,0.05111 -1.675662,0.284896 -1.675662,0.5079282 0,0.1307817 0.09765,0.1251494 0.552579,-0.031877 z m 1.481347,0.029201 c 0,-0.1288005 -0.02121,-0.1399173 -0.352025,-0.1845445 -0.253049,-0.034114 -0.273802,-0.02884 -0.273802,0.069677 0,0.1415032 0.133907,0.2125704 0.404181,0.2145078 0.185175,0.0012 0.221646,-0.01506 0.221646,-0.09964 z M 27.376543,4.592471 c 0.262599,-0.3567141 0.303993,-0.5330379 0.118883,-0.5063742 -0.141111,0.020332 -0.51013,0.529259 -0.51013,0.7035495 0,0.2097542 0.14576,0.1362943 0.391247,-0.1971753 z M 3.2964525,4.648231 C 3.3067864,4.5939289 3.1918822,4.5098874 2.9420852,4.389044 2.6377826,4.2418286 2.564355,4.2232699 2.5267854,4.2840591 2.4391791,4.425806 2.5929589,4.5685715 2.9953882,4.7190984 3.1278098,4.7686274 3.2803723,4.7327203 3.2964525,4.648231 Z m 0.3769113,0.00511 c 0,-0.055728 -0.047619,-0.1820319 -0.1058199,-0.2806735 -0.091585,-0.1552286 -0.095094,-0.1834701 -0.026077,-0.209954 0.058257,-0.02237 0.079744,-0.1083245 0.079744,-0.3190733 0,-0.2477505 -0.013865,-0.2884711 -0.098224,-0.2884711 -0.113682,0 -0.1706995,0.2015895 -0.1239908,0.4383709 L 3.428888,4.1450804 3.2447576,3.9441622 C 3.082482,3.7670874 3.0697565,3.7341123 3.1375437,3.6663247 3.1927182,3.6111478 3.2050718,3.5306935 3.1812458,3.3816924 3.1390928,3.1180835 3.1177475,3.0858036 2.9855899,3.0858036 c -0.099726,0 -0.1052459,0.020332 -0.072497,0.2672239 L 2.9485408,3.6202515 2.727005,3.4573293 C 2.5038543,3.293225 2.2652577,3.2412518 2.2652577,3.3567464 c 0,0.034274 0.064538,0.129951 0.1434178,0.2125903 L 2.5520933,3.7195921 2.4086755,3.6838807 c -0.129456,-0.032236 -0.1434178,-0.02221 -0.1434178,0.1029837 0,0.1095388 0.038852,0.154925 0.1848278,0.2159178 0.2009446,0.083962 0.2845399,0.063358 0.2845399,-0.070132 0,-0.1178314 0.3750446,0.2523322 0.5818681,0.5742936 C 3.483464,4.7668698 3.673361,4.8447717 3.673361,4.6533444 Z M 28.403501,4.5069434 c 0.267166,-0.2138166 0.333428,-0.3161892 0.255271,-0.3943508 -0.126248,-0.126244 -0.731134,0.3360383 -0.665048,0.5082557 0.0482,0.1256208 0.14365,0.099089 0.409777,-0.1139049 z M 5.2579704,3.9232226 C 5.2246038,3.5231398 5.2270845,3.5099497 5.330549,3.5370049 5.4622213,3.5714378 5.6193489,3.3588595 5.5939715,3.1806184 5.5702757,3.0141811 5.3971005,2.9897783 5.3515688,3.1464648 5.3242221,3.2405687 5.3102088,3.2089238 5.2900754,3.0075821 5.2715326,2.8221547 5.2414001,2.7468253 5.1857712,2.7468253 c -0.1246363,0 -0.2158544,0.4606844 -0.1961992,0.9908862 0.019082,0.5147547 0.047495,0.5997469 0.2004972,0.5997469 0.096128,0 0.1003162,-0.025565 0.067902,-0.4142277 z m 0.2725499,0.2178593 c 0.085784,-0.056755 0.2289225,-0.3562706 0.2289225,-0.4790155 0,-0.204046 -0.1996773,-0.1280655 -0.3212932,0.1222535 -0.1387752,0.2856429 -0.089251,0.4769222 0.092371,0.356762 z M 4.9149888,3.9070727 C 4.9391439,3.7825703 4.6470474,3.4784486 4.5420197,3.5187537 4.4141783,3.5678109 4.4364931,3.6800979 4.6112662,3.8671909 4.7709523,4.0381341 4.8866151,4.0533215 4.9149888,3.9070567 Z M 20.28263,3.0336505 C 20.281791,2.4698986 20.2617,2.237631 20.2037,2.1209939 20.087318,1.8869248 19.96787,1.9152143 19.983491,2.1731429 c 0.007,0.1147357 0.02725,0.5325785 0.04512,0.9285391 0.03143,0.6968507 0.03605,0.7194239 0.143824,0.7040527 0.107903,-0.015378 0.111309,-0.039265 0.110208,-0.7720841 z m 4.085151,0.5952891 c 0.197543,-0.2396535 0.437229,-0.7324182 0.577607,-1.1874902 0.14128,-0.4579922 0.143213,-0.6072927 0.0078,-0.6072927 -0.07984,0 -0.12517,0.071831 -0.205675,0.325948 l -0.103269,0.3259519 -0.0029,-0.2515454 c -0.0023,-0.2059035 -0.0187,-0.2484854 -0.08988,-0.2346842 -0.110406,0.02141 -0.194216,0.2674756 -0.150469,0.4417782 0.02524,0.1005549 0.05875,0.1270109 0.135475,0.1069503 0.05607,-0.014659 0.101936,-0.016457 0.101936,-0.00399 0,0.05542 -0.340936,0.6922489 -0.476145,0.8893884 -0.250429,0.3651265 -0.07332,0.5331895 0.20547,0.1949743 z m 0.559146,0.025445 c 0.29498,-0.1103655 0.408211,-0.2317962 0.286363,-0.3071016 -0.151062,-0.093365 -0.731288,0.1554042 -0.731288,0.3135329 0,0.130658 0.08167,0.1294796 0.444925,-0.00643 z M 14.185182,3.3415751 c 0.13046,-0.2035268 0.42366,-0.5503543 0.651559,-0.770726 0.227898,-0.2203718 0.414361,-0.4293432 0.414361,-0.4643794 0,-0.035032 -0.0586,-0.063705 -0.130223,-0.063705 -0.276041,0 -1.330033,1.1756703 -1.330033,1.4835829 0,0.1210511 0.03929,0.1852796 0.113338,0.1852796 0.0241,0 0.15054,-0.1665212 0.280998,-0.3700521 z m 0.551998,0.2086198 c 0.323479,-0.1631537 0.485568,-0.4122384 0.268261,-0.4122384 -0.155132,0 -0.744828,0.3336653 -0.745034,0.4215616 -4e-4,0.1786447 0.108314,0.1765197 0.476773,-0.0093 z m 5.154938,-0.060214 c -2.91e-4,-0.064536 -0.05788,-0.2405523 -0.12798,-0.3911391 -0.0929,-0.1995482 -0.156409,-0.273799 -0.234175,-0.273799 -0.271023,0 0.0479,0.7695196 0.32355,0.7806964 0.02152,7.989e-4 0.03888,-0.051218 0.0386,-0.1157583 z m 0.880451,-0.1161777 c 0.23445,-0.2543455 0.282423,-0.4444545 0.112158,-0.4444545 -0.110442,0 -0.522732,0.4767265 -0.522732,0.6044285 0,0.1464246 0.199964,0.06851 0.410574,-0.159974 z M 4.9148046,3.2839096 C 4.9316697,3.14273 4.7963129,2.9637298 4.6973122,2.9962935 4.5989373,3.0286494 4.5977597,3.2442757 4.6953548,3.3521326 4.8113156,3.4802702 4.8944204,3.4544293 4.9147915,3.2839096 Z M 24.116938,2.9815017 c 0,-0.4241702 -0.0094,-0.4693686 -0.09779,-0.4693686 -0.0678,0 -0.10778,0.049976 -0.13038,0.1629739 -0.07672,0.3836494 -0.0016,0.7757592 0.148646,0.7757592 0.06537,0 0.07951,-0.083534 0.07951,-0.4693645 z M 13.832069,2.8120046 c -0.01412,-0.4011296 -0.02309,-0.4313804 -0.132488,-0.4469192 -0.111129,-0.015778 -0.117305,7.99e-4 -0.11663,0.3129136 9.17e-4,0.4315602 0.03949,0.5642594 0.163935,0.5642594 0.09212,0 0.09909,-0.035192 0.08518,-0.4302538 z m 1.333772,-0.042898 c 0.135012,-0.1062034 0.189618,-0.3091269 0.08318,-0.3091269 -0.07913,0 -0.454629,0.1980822 -0.492906,0.2600138 -0.106924,0.1730123 0.204721,0.2103654 0.409723,0.049113 z m 10.074073,0.0028 c 0.18831,-0.1163847 0.263724,-0.2498148 0.185436,-0.3281042 -0.122365,-0.1223653 -0.59198,0.2325752 -0.501475,0.3790197 0.04917,0.079548 0.124608,0.067396 0.316039,-0.050915 z m -4.659907,-0.038068 c 0.134009,-0.1573616 0.221265,-0.4290515 0.158087,-0.4922293 -0.08892,-0.088923 -0.217767,-0.00738 -0.300225,0.1899492 -0.140344,0.3358864 -0.05004,0.5279448 0.142138,0.3022801 z M 19.94478,2.6139065 c 0,-0.1278539 -0.140794,-0.4146272 -0.203563,-0.4146272 -0.02444,0 -0.07194,0.033154 -0.105567,0.073672 -0.09199,0.110837 0.06014,0.4478459 0.202164,0.4478459 0.07306,0 0.106966,-0.033873 0.106966,-0.1068907 z M 14.514784,2.2804886 c 0.08683,-0.3448142 0.07608,-0.4462719 -0.04725,-0.4462719 -0.127072,0 -0.207317,0.1829907 -0.207317,0.4727598 0,0.1661297 0.01868,0.2052125 0.09811,0.2052125 0.07258,0 0.1133,-0.060315 0.156457,-0.2317004 z"
       id="path24" /><text
       xml:space="preserve"
       style="font-weight:500;font-size:17.1062px;font-family:Poppins;-inkscape-font-specification:'Poppins weight=750';fill:#008000;stroke-width:1.42551"
       x="13.743375"
       y="24.207308"
       id="text24"><tspan
         sodipodi:role="line"
         id="tspan24"
         x="13.743375"
         y="24.207308"
         style="stroke-width:1.42551">TsuAqua</tspan></text></g></svg>
